<?xml version="1.0" encoding="UTF-8"?>
<svg id="Layer_1" xmlns="http://www.w3.org/2000/svg" xmlns:xlink="http://www.w3.org/1999/xlink" version="1.1" viewBox="0 0 2168.33 722.78">
  <!-- Generator: Adobe Illustrator 30.2.1, SVG Export Plug-In . SVG Version: 2.1.1 Build 1)  -->
  <defs>
    <style>
      .st0, .st1 {
        fill: none;
      }

      .st2 {
        fill: #f6f7f9;
      }

      .st3 {
        fill: #0f1711;
      }

      .st4 {
        fill: #fff;
      }

      .st5 {
        fill: #cad6ee;
      }

      .st6 {
        fill: #2a4a9b;
      }

      .st7 {
        clip-path: url(#clippath);
      }

      .st1 {
        stroke: #f6f7f9;
        stroke-width: 2px;
      }
    </style>
    <clipPath id="clippath">
      <rect class="st0" x="1387.14" y="187.82" width="712.22" height="217.29"/>
    </clipPath>
  </defs>
  <path class="st2" d="M513.57,11c-30.75-.34-50.49,22.67-62.99,48.24-6.17,12.61-8.19,27.62-10.58,41.38-22.55,11.12-43.95,23.13-65.22,36.62-7.52,3.97-22.49,19.3-29.86,21.99-34.76,12.66-62.15,23.55-76.1,61.35-6.1,16.54-2.84,26.5,4.96,42.28-4.81,10.26-10.18,20.24-16.11,29.89-37.05,8.79-79.81,13.7-115.62,25.72-30.49,10.81-106.15,27.43-119.2,60.98-15.78,40.59-8.63,108.78-14.79,153.03-4.04,29.12-1.25,57.2,16.32,80.92-5.04,2.84-10.69,5.97-14.64,10.05-25.16,26.48,3.12,52.03,31.96,54.4,22.45,1.84,44.38,2.05,66.81,2.61l115.37,2.65c137.3,3.64,274.66,5.26,412.02,4.86,362.22,3.84,724.46,3.31,1086.66-1.59,31.89-1.51,65.64-.53,97.73-1l193.63-4.45c34.61-.98,69.47-.27,103.94-3.84,14.34-1.81,37.74-6.5,40.47-23.93,5.4-34.6-19.37-41.12-45.4-46.12.38-17.47-1.45-41.81-2.16-59.92,19.71-12.02,19.16-18.01,30.91-36.28,5.03-7.81,17.32-13.14,20.95-24.1,8.28-24.91,5.25-55.08,4.88-81.27-.28-24.34-.38-48.67-.3-73.01l.08-100.7c.09-58.14,11.39-108.25-66.42-108.39-74.2-.14-148.58.46-222.79.4l-518.59.62-357.98.17c-61.8-.02-123.97-.64-185.78.47-10.38.19-21.22,4.1-30.77,7.92-5.1-79.18-48.87-80.05-113.53-75.68-40.53,2.74-73.01,3.93-113.5,11.63-5.72-29.73-9.31-53.17-44.32-57.89h-.04Z"/>
  <path class="st3" d="M510.73,36.38c1.9-1.05,4.21-.08,4.91,1.98,3.22,9.38,4.54,16.23,3.18,29.21-.06.59-.27,1.15-.58,1.65-5.73,9.07-8.91,19.76-9.66,29.94-.18,2.39,2.07,4.18,4.42,3.67,83.98-18.1,133.57-23.18,221.23-19.74,1.54.06,2.91,1.07,3.42,2.52,19.81,56.4,24.36,88.51,25.67,144.93,0,.05,2.95,212.17,0,221.02-1.66,4.99-18.33,12.79-32.55,18.64-3.91,1.61-2.76,7.88,1.47,7.88h181.36s.05-.01.05-.01h.49c2.78.01,3.34-3.98.68-4.77-5.88-1.74-11.45-3.43-12.99-4.06-2.12-.86-3.77-3.22-4.78-5.04-.76-1.36-2.14-2.33-3.7-2.33h-79.93c-8.14,0-14.73-6.6-14.73-14.74V161.3c0-8.14,6.6-14.73,14.73-14.73h1302.58c8.13,0,14.74,6.6,14.74,14.73v285.86c0,8.14-6.61,14.74-14.74,14.74h-9.49c-2.09,0-3.76,1.68-3.76,3.76v28.65c0,6.51-5.29,11.79-11.8,11.79h-8.02c-2.09,0-3.76,1.69-3.76,3.76v79.81c0,6.85-6.57,11.8-13.16,9.92-4.42-1.26-7.47-5.31-7.47-9.92v-79.81c0-2.08-1.69-3.76-3.76-3.76h-22.59c-3.11,0-4.91,3.58-3.28,6.21,8.51,13.58,13.42,29.63,13.42,46.84,0,48.83-39.58,88.41-88.41,88.41s-88.42-39.58-88.42-88.41c0-17.2,4.91-33.26,13.41-46.84,1.65-2.63-.17-6.21-3.27-6.21h-23.23c-3.1,0-4.92,3.58-3.27,6.21,8.5,13.58,13.41,29.63,13.41,46.84,0,48.83-39.58,88.41-88.41,88.41s-88.41-39.58-88.41-88.41c0-17.2,4.92-33.26,13.41-46.84,1.65-2.63-.17-6.21-3.27-6.21h-368.12c-1,0-1.96.4-2.66,1.1l-46.42,46.42c-.71.71-1.1,1.66-1.1,2.66v12.36c0,2.08,1.68,3.76,3.76,3.76h2.13c3.25,0,5.89,2.64,5.89,5.89s-2.64,5.9-5.89,5.9h-36.84c-3.25,0-5.9-2.64-5.9-5.9s2.64-5.89,5.9-5.89h.66c2.08,0,3.76-1.69,3.76-3.76v-58.78c0-2.08-1.69-3.75-3.76-3.88-18.94-1.12-36.47-10.67-47.67-26.14l-10.8-14.92c-.71-.98-1.84-1.55-3.05-1.55h-172.61c-2.08,0-3.74,1.74-4.51,3.67-.6,1.5-1.7,3.04-3.67,3.7-.16.05-.32.11-.5.17-3.93,1.36-2.83,7.13,1.33,7.13,6.74,0,14.86,0,23.86.06h65.89c.52,0,1.03.11,1.51.32.34.16.69.31,1.03.47.47.22.98.34,1.5.36,37.7,1.17,71.41,3.41,76.32,7.7,9.08,7.95,7.67,76.26,6.54,107.19-.25,6.92-7.76,10.95-13.74,7.47-2.84-1.66-4.59-4.7-4.59-7.98v-60.45c0-2.49-2.38-4.3-4.78-3.62l-10.06,2.83c-2.03.57-3.19,2.7-2.67,4.74,1.81,7.04,2.77,14.43,2.77,22.03,0,48.83-39.58,88.41-88.41,88.41-41.2,0-75.81-28.18-85.62-66.31-.44-1.71-1.96-2.94-3.72-2.94h-4.02c-1.77,0-3.29,1.23-3.73,2.94-9.81,38.13-44.42,66.31-85.62,66.31-48.83,0-88.41-39.58-88.41-88.41,0-2.41.1-4.8.29-7.17,0-.09-.05-.17-.14-.18-.08-.01-.16.03-.18.11-.51,1.81-6.46,21.77-19.12,17.55-9.22-3.07-10.61-13.28-10.59-19.21,0-2.31-1.8-4.37-4.11-4.37h-5.11c-2.08,0-3.76,1.68-3.76,3.76v21.28c0,9.77-7.92,17.68-17.68,17.68h-197.45c-9.77,0-17.68-7.92-17.68-17.68v-3.6c0-2.08-1.68-3.76-3.76-3.76h-5.73c-2.08,0-3.76,1.69-3.76,3.76v12.45c0,4.88-3.96,8.84-8.84,8.84h-144.4l-37.22-1.05c-1.65-.05-3.14,1-3.72,2.54-12.55,33.55-44.9,57.45-82.84,57.45-40.58,0-74.77-27.34-85.16-64.6-.04-.14-.16-.23-.3-.24h-6.55c-2.08,0-3.76,1.69-3.76,3.76v4.51c0,1.98-1.5,3.61-3.47,3.7-13.48.64-62.39,1.94-77.58-11.98-17.68-16.21-8.84-48.62-7.37-51.57s7.37-4.42,7.37-8.84-4.42-7.37-4.42-16.21,4.42-109.04,14.73-125.25c15.4-20.99,200.97-64.59,219.53-68.91,1.04-.24,1.79-.88,2.31-1.8l37.83-67.55c1.27-2.27-.09-5.17-2.6-5.85-5.46-1.47-13.51-4.38-15.41-9.14-2.95-7.37,16.21-32.42,26.52-36.84,8.68-3.72,22.56-4.31,26.76-4.4.81-.02,1.6-.29,2.25-.77,42.55-31.56,68.59-47.91,117.81-71.95,1.23-.6,2.05-1.81,2.16-3.17.53-6.76,2.59-27.88,8.69-44.96,5.59-15.64,20.49-25.35,27.37-29.14l-.03.02ZM1276.1,506.1v36.84l36.84-36.84h-36.84Z"/>
  <path class="st4" d="M2115.63,445.79H818.77c-2.08,0-3.76-1.68-3.76-3.76V167.23c0-2.08,1.68-3.76,3.76-3.76h1296.86c2.07,0,3.76,1.69,3.76,3.76v274.81c0,2.08-1.69,3.76-3.76,3.76h0Z"/>
  <ellipse class="st3" cx="1083.22" cy="646.25" rx="1047.46" ry="10.35"/>
  <path class="st2" d="M690.78,577.55h-7.53c-1.04,0-1.88-.84-1.88-1.88v-86.58c0-1.04.84-1.88,1.88-1.88h7.53c1.04,0,1.88.84,1.88,1.88v86.58c0,1.04-.84,1.88-1.88,1.88Z"/>
  <path class="st6" d="M81.45,511.39h-23.9c-1.64,0-2.96,1.33-2.96,2.96s1.33,2.96,2.96,2.96h67.64c38.59-49.82,61.07-76.07,136.79-51.86l13.75-25.3c.52-.95.12-2.15-.87-2.6-59.68-27.09-118.38-16.12-189.39,35.31h28.2c1.62,0,2.48,1.91,1.41,3.12l-29.4,33.48c-1.07,1.22-2.62,1.92-4.24,1.92h.01Z"/>
  <path class="st6" d="M322.29,575.59c.35-46.46-9.42-70.53-51.25-104.85l14.63-26.83c49.19,44.74,51.54,77.71,48.48,131.96-.11,1.99-1.76,3.56-3.75,3.56h-4.32c-2.11,0-3.8-1.74-3.79-3.84Z"/>
  <path class="st6" d="M150.58,538.02c35.29-61.89,102.94-61.89,141.17-1.47-23.53-89.89-133.81-66.31-141.17,1.47Z"/>
  <path class="st6" d="M184.46,605.78c20.02,13.4,31.67,20.08,64,8.88-29.53,15.6-43.42,12.99-64-8.88Z"/>
  <path class="st6" d="M356.38,217.87l10.47-15.58c.86-1.28-.09-2.99-1.63-2.93l-30.59,1.16c-3.87.15-7.49,1.99-9.88,5.04l-11.81,15.08c-.97,1.23-.09,3.04,1.48,3.04h31.01c4.39,0,8.49-2.18,10.93-5.82h.02Z"/>
  <path class="st6" d="M474.52,164.25c-44.91,16.88-61.22,28.14-88.41,48.63,41.54-18.84,63.94-28.47,88.41-29.47v38.31c-.07.03-8.95,3.86-10.18,10.31-36.92-2.34-58.44.06-91.95,3.44-6.4.65-12.44,3.3-17.21,7.6l-4.15,3.74c-2.14,1.93-4,4.14-5.47,6.62-10.79,18.15-22.3,42.14-33.45,75.37-.76,2.27-1.14,4.65-1.14,7.05v92.04c0,3.87,1.49,7.59,4.15,10.38l25.32,26.58s-7.22,9.5-16.21,0-15.74-15.64-36.84-30.94v-98.89c0-3.39,2.31-6.32,5.23-8.03,6.1-3.57,15.08-11.71,25.71-30.12,14.29-24.76,21.67-46.66,23.57-53.05,10.31,0,22.75-12.76,30.95-25.05,11.79-17.68,2.95-23.08,0-26.52,35.92-29.56,57.69-43.55,101.67-60.42v32.42h0ZM372.72,239.59c37.1-4.51,58.66-5.23,91.48-3.14v228.39h-117.88l-26.78-28.05c-2.67-2.8-4.17-6.52-4.17-10.4v-90.51c0-2.42.39-4.83,1.16-7.13,9.24-27.73,15.33-44.7,32.35-73.02,1.23-2.04,2.71-3.92,4.39-5.6l2-2c4.7-4.7,10.84-7.73,17.45-8.54h0ZM451.98,425.99l-25.51.91c-4.32.15-7.62,3.9-7.23,8.21l.13,1.44c.35,3.88,3.6,6.85,7.5,6.85h25.38c4.16,0,7.53-3.37,7.53-7.53v-2.35c0-4.26-3.54-7.68-7.8-7.53ZM396.42,424.24c-23.65-3.48-39.46-4.39-75.15-2.95l3.79,5.06c.39.52,1.02.8,1.66.75,17.58-1.45,34.02-2.05,69.69-2.86h0ZM370.65,261.5c-2.43,0-4.83.59-6.99,1.72l-16.82,8.81c-6.87,3.6-11.81,10.05-13.5,17.63l-4.03,18.15c-1.43,6.44-2.15,13.01-2.15,19.6v28.39l3.29,4.61c2.1,2.93.94,7.05-2.37,8.47l-.45.19c-2.07.89-3.42,2.93-3.42,5.19v13.6c0,2.76,2,5.12,4.73,5.5,9.24,1.27,21.79,2.26,21.79-.72v-23.27c0-2.02,1.08-3.88,2.82-4.89l6.36-3.67c.75-.43,1.39-1.03,1.87-1.74l5.16-7.69,66.2-1.1c12.32-.21,22.21-10.26,22.21-22.58v-58.67c0-4.16-3.37-7.53-7.53-7.53h-77.18,0Z"/>
  <path class="st6" d="M355.73,345.26v.78c0,1.04-.84,1.88-1.88,1.88h-13.21c-1.01,0-1.83-.8-1.89-1.8-1.16-21.62-4.15-31.38,1.54-55.54.85-3.63,2.28-7.79,5.96-8.4,2.79-.46,6.18.36,9.48,1.49.03,32.39.02,42.97,0,61.61v-.02Z"/>
  <path class="st6" d="M751.01,236.87h-45.17v227.75c19.59-3.2,29.85-7.2,45.17-17.75v-210Z"/>
  <path class="st6" d="M670.49,92.04c20.12,12.56,21.4,60.94,27.6,135.56h-170.93l.36-41.78c.02-2.55.76-5.06,2.28-7.1,15.65-20.96,39.25-26.52,81.74-35.11-30.03-7.15-51.64-5.14-97.25,7.37v-38.31c57.73-12.95,91.9-17.57,156.19-20.63h.01ZM674.93,155.4c-52.3,4.23-97.25,19.16-86.94,29.47s39.4,9.73,91.36,4.42c.69-13.12-.15-20.53-4.42-33.89Z"/>
  <path class="st6" d="M751.01,227.46h-47.42c-5.85-91.47-10.77-120.89-22.23-137.4h47.42c18.41,47.7,18.49,80.71,22.23,137.4Z"/>
  <path class="st6" d="M698.48,465.76l-169.45-.79-1.46-228.53h170.93v229.32h-.02ZM615.23,251.18c-9.35,0-16.94,7.59-16.94,16.94v163.57c0,9.35,7.59,16.94,16.94,16.94h54.53c9.36,0,16.94-7.59,16.94-16.94v-163.57c0-9.35-7.59-16.94-16.94-16.94h-54.53Z"/>
  <path class="st6" d="M664.44,267.39c4.16,0,7.53,3.37,7.53,7.53v149.98c0,4.16-3.37,7.53-7.53,7.53h-43.88c-4.16,0-7.53-3.37-7.53-7.53v-149.98c0-4.16,3.37-7.53,7.53-7.53h43.88ZM655.92,402.95c-4.16,0-7.53,3.37-7.53,7.53v8.52c0,4.16,3.37,7.53,7.53,7.53h2.62c4.16,0,7.53-3.37,7.53-7.53v-8.52c0-4.16-3.37-7.53-7.53-7.53h-2.62ZM626.45,273.28c-4.16,0-7.53,3.37-7.53,7.53v37.99c0,4.16,3.37,7.53,7.53,7.53h32.09c4.16,0,7.53-3.37,7.53-7.53v-37.99c0-4.16-3.37-7.53-7.53-7.53h-32.09Z"/>
  <rect class="st1" x="604.2" y="259.45" width="75.29" height="180.69" rx="6" ry="6"/>
  <path class="st6" d="M280.02,429.48c-94.3-41.26-197.45,14.73-223.97,58.94-2.8-32.57.1-54.51,10.69-99.95.68-2.93,2.77-5.37,5.55-6.53,80.22-33.22,126.44-42.55,207.73-58.56v106.09h0ZM263,367.59c-59.29,6.89-101.31,8.73-94.31,30.94,15.84,7.85,34.64,6.39,79.57-2.95,10.47-10.46,14.4-16.53,14.73-28h0Z"/>
  <path class="st6" d="M120.87,531.54c-5.18,18-6.97,28.03-5.89,45.68l-50.93-1.18c-6.98-.16-12.62-5.74-12.86-12.72l-.78-22.68c-.14-4.2,3.17-7.7,7.37-7.79l63.1-1.31h-.01ZM69.97,541.53c-8.32-.4-11.34.85-13.26,5.89-2.83,14.47,3.72,13.73,13.26,14.74v-20.63Z"/>
  <g class="st7">
    <g>
      <path class="st6" d="M1602.95,405.11h-215.81v-217.29h215.81v217.29ZM1851.24,405.11h-215.85v-217.29h215.85v217.29ZM2099.36,187.82v217.29h-215.82v-217.29h215.82Z"/>
      <path class="st4" d="M1926.12,226.26h128.67v31.78h-45.1v106.06h-38.43v-106.06h-45.14v-31.78h0ZM1487.14,226.26h-54.26v137.88h54.22c38.44,0,69.71-30.93,69.71-68.94.04-38.01-31.23-68.94-69.67-68.94h0ZM1480.65,259.19c22.57,0,36.6,13.78,36.6,36.01s-13.82,36.05-36.99,36.05h-9.26v-72.06h9.65ZM1821.09,364.14l-58.02-137.88h-41.04l-58.02,137.88h37.63l9.38-22.35h63.05l9.38,22.35h37.64ZM1760.68,312.86h-36.31l18.17-43.13,18.13,43.13h.01Z"/>
    </g>
  </g>
  <rect class="st4" x="848.56" y="199.43" width="496.26" height="194.44"/>
  <path class="st6" d="M1353.93,406.71h-519.88v-218.89h519.88v218.89ZM946.25,225.44c-42.58,0-74.57,26.19-74.57,74.57s31.99,74.57,74.57,74.57,74.57-26.19,74.57-74.57-31.99-74.57-74.57-74.57ZM1036.78,228.64v142.74h39.98v-85.97h.8l44.78,85.97h49.78v-142.74h-39.98v83.77h-.8l-43.98-83.77h-50.58ZM1196.91,228.64v142.74h112.56v-33.99h-68.38v-22.99h64.38v-31.59h-64.38v-21.19h68.38v-32.99h-112.56,0ZM946.25,259.83c14.59,0,29.78,8.2,29.78,40.18s-15.19,40.18-29.78,40.18-29.79-8.2-29.79-40.18,15.2-40.18,29.79-40.18Z"/>
  <path class="st6" d="M813.12,556.6c22.23-80.08,115.58-77.12,139.28,0-11.85-86.01-130.39-88.98-139.28,0Z"/>
  <path class="st6" d="M836.83,593.67c22.23,34.11,66.68,34.11,91.87,0-13.34,43.01-81.5,44.49-91.87,0Z"/>
  <path class="st6" d="M1703.42,556.6c22.23-80.08,115.58-77.12,139.28,0-11.85-86.01-130.39-88.98-139.28,0Z"/>
  <path class="st6" d="M1727.13,593.67c22.23,34.11,66.68,34.11,91.87,0-13.34,43.01-81.5,44.49-91.87,0Z"/>
  <path class="st6" d="M986.29,556.6c21.93-80.08,114.01-77.12,137.4,0-11.69-86.01-128.63-88.98-137.4,0h0Z"/>
  <path class="st6" d="M1009.68,593.67c21.93,34.11,65.78,34.11,90.63,0-13.15,43.01-80.4,44.49-90.63,0h0Z"/>
  <path class="st6" d="M1884.11,556.6c22.23-80.08,115.57-77.12,139.28,0-11.86-86.01-130.4-88.98-139.28,0Z"/>
  <path class="st6" d="M1907.83,593.67c22.23,34.11,66.67,34.11,91.87,0-13.35,43.01-81.5,44.49-91.87,0Z"/>
  <path class="st2" d="M73.03,382.33c-2.73,1.8-13.91,68.18-14.91,112.4-4.35-22.21-5.59-36.89,1.49-90.22,3.13-22.27,16.15-23.99,13.42-22.19h0Z"/>
  <path class="st2" d="M273.32,325.33c-80.08,14.75-136.43,28.03-194.27,54.58,61.51-17.57,106.3-28.81,195.75-50.16l-1.48-4.43h0Z"/>
  <path class="st2" d="M78.05,506.03h-15.68c-1.6,0-2.47-1.86-1.45-3.09l18.71-22.44c1.68-2.01,4.11-3.23,6.73-3.37l18.29-.98c1.67-.09,2.62,1.88,1.5,3.13l-21.08,23.6c-1.79,2-4.34,3.14-7.02,3.14h0Z"/>
  <path class="st2" d="M140.12,498.81c-3.05,2.89-5.46,6.6-7.47,8.52-1.49,1.42-4.48,0-7.47-1.42h0c-2.99-1.42,1.49-9.93,7.47-14.19,3.66-2.61,11.06-4.27,15.22-4.49,1.32-.07,1.73,1.25.86,2.25-2.11,2.41-5.36,6.25-8.61,9.33h0Z"/>
  <path class="st2" d="M87.78,530.5c-15.35,0-25.49,1.66-29.3,2.64-.42.11-.76.4-.95.79-.49,1.02.25,2.21,1.38,2.21h59.67c1.04,0,1.88-.84,1.88-1.88v-2.35c-4.08-.47-16.34-1.41-32.68-1.41h0Z"/>
  <path class="st2" d="M229.18,429.94c24.73,2.3,39.74,6.7,45.63,10.05,0-5.74-20.6-18.67-58.87-18.67s-69.18,10.05-94.2,22.98c-20.02,10.34-36.8,25.38-42.68,31.6,5.4-3.83,20.02-13.79,35.32-22.98,15.31-9.19,33.85-13.41,41.21-14.36-7.85,4.31-24.14,13.5-26.49,15.8-2.36,2.3-2.94,5.74-2.94,7.18,3.92-2.39,14.42-8.9,25.02-15.8,13.25-8.62,47.1-18.67,78.01-15.8h-.01Z"/>
  <path class="st2" d="M302.11,311.15c-4.16,3.74-10.36,3.96-10.36,0s15.84-33.83,37.37-71.35c0,0,2.87-5.47,7.4-1.46,4.52,4.01-30.25,69.07-34.41,72.81h0Z"/>
  <path class="st5" d="M340.12,310.11c-1.14,11.49-1.42,28.74-1.42,35.92-2.84-20.04-2.84-57.48,4.26-61.79,5.68-3.45,12.79-2.79,12.79,1.52-.95,0-3.34.25-8.52,2.87-5.68,2.87-5.68,7.11-7.1,21.47h-.01Z"/>
  <path class="st2" d="M338.21,426.97h-8.82c2.67,6.76,13.24,18.82,16.18,18.82s2.94,0,4.41-1.45-11.77-17.37-11.77-17.37Z"/>
  <path class="st2" d="M427.27,435.07c0-1.59,1.24-2.9,2.82-3l18.46-1.14c1.73-.11,3.19,1.27,3.19,3,0,1.59-1.24,2.9-2.82,3l-18.46,1.14c-1.73.11-3.19-1.27-3.19-3Z"/>
  <path class="st2" d="M369.84,329.63v10.76l62.84-2.47c6.82-.27,12.3-5.69,12.64-12.51l2.54-50.76c.05-1.09-.83-2-1.92-1.98l-62.99,1.34c-2.56.05-5,1.14-6.69,3.07-11.23,12.82-11.71,18.69-10.84,35.32l2.5,6.69c1.26,3.37,1.91,6.94,1.91,10.54h0Z"/>
  <path class="st2" d="M328.36,214.64l-15.01,9.06c-3-1.51,1.5-15.09,13.51-22.64,9.53-5.99,27.74-3.17,34.38-2.15l.15.02c-3.5,1.01-15.91,1.22-25.52,3.63s-13.01,8.05-13.51,10.56l6,1.51h0Z"/>
  <path class="st2" d="M416.82,157.4c-20.19,11.71-39.09,27.33-46.02,33.67l1.8,2.66c.63.93,1.91,1.11,2.78.4,7.9-6.53,25.25-19.97,42.93-30.87,18.19-11.21,44.18-21.53,56.35-25.81.89-.31,1.41-1.23,1.22-2.16l-1.16-5.7c-10.89,4.39-37.71,16.1-57.9,27.82h0Z"/>
  <path class="st2" d="M458.04,493.81h-97.88c-1.04,0-1.88-.84-1.88-1.88v-6.6c0-1.04.84-1.88,1.88-1.88h97.88c1.04,0,1.88.84,1.88,1.88v6.6c0,1.04-.84,1.88-1.88,1.88Z"/>
  <path class="st2" d="M486.02,501.21h-125.86c-1.04,0-1.88.84-1.88,1.88v8.08c0,1.04.84,1.88,1.88,1.88h125.86c1.04,0,1.88-.84,1.88-1.88v-8.08c0-1.04-.84-1.88-1.88-1.88h0Z"/>
  <path class="st2" d="M486.02,557.49h-125.86c-1.04,0-1.88-.84-1.88-1.88v-34.74c0-1.04.84-1.88,1.88-1.88h125.86c1.04,0,1.88.84,1.88,1.88v34.74c0,1.04-.84,1.88-1.88,1.88h0Z"/>
  <path class="st2" d="M353.86,565.3v8.49c0-1.17,87.9-.51,133.65-.02,1.05.01,1.87-.83,1.87-1.88v-6.58c0-1.04-.84-1.88-1.88-1.88h-131.76c-1.04,0-1.88.84-1.88,1.88h0Z"/>
  <path class="st2" d="M488.64,492.85h-16.2c11.78-7.24,12.27-18.82,13.26-18.82h20.62c-.56,0-2,11.89-17.68,18.82Z"/>
  <path class="st2" d="M475.99,239.39c13.3-.85,20.84-1.29,38.31,0v226.92h-38.31v-226.92ZM495.14,273.28c-1.63,0-2.95,1.32-2.95,2.95v153.24c0,1.63,1.32,2.95,2.95,2.95s2.95-1.32,2.95-2.95v-153.24c0-1.63-1.32-2.95-2.95-2.95h0Z"/>
  <path class="st2" d="M500.08,231.22h-16.1c0-36.06-1.15-119.62,1.46-140.8,2.93-23.71,18.05-44.46,26.34-47.43,2.13,8.22,3.29,12.83,0,22.23-5.85,7.41-11.71,19.27-11.71,57.8v108.19h.01Z"/>
  <path class="st2" d="M567.03,158.36c-24.72,9.33-35.81,22.34-38.26,27.69,2.94-13.11,10.3-17.49,4.42-14.57-4.71,2.33-9.81,5.83-11.77,7.29-.49-3.4,4.12-12.53,26.49-21.86s65.24-14.57,83.88-16.03l4.41,2.91c-12.75.97-44.44,5.25-69.16,14.57h0Z"/>
  <path class="st2" d="M595.29,105.29c-36.72,4.88-69.59,13.21-81.44,16.76l.89-5.47c.36-2.23,2.03-4.03,4.23-4.57,57.2-14.1,90.63-17.65,144.62-21.37,5.51-.38,10.92,1.69,14.77,5.65l2.82,2.9c-13.33,0-49.16,1.22-85.88,6.09h-.01Z"/>
  <path class="st2" d="M735.95,100.72l-48.86-1.52-4.44-9.14h45.9l7.4,10.67h0Z"/>
  <path class="st2" d="M530.16,546.47l-1.44,23.55c-4.85-35.84-4.19-52.14-1.44-79.49,12.4-1.74,19.34-2.11,31.75,0v55.94c-13.02,1.71-18.95,1.32-28.86,0h-.01Z"/>
  <path class="st2" d="M728.77,546.47l1.52,23.55c5.12-35.84,4.42-52.14,1.52-79.49-13.09-1.74-20.42-2.11-33.51,0v55.94c13.74,1.71,20,1.32,30.46,0h0Z"/>
  <path class="st2" d="M574.63,575.67h-8.08c-1.04,0-1.88-.84-1.88-1.88v-86.58c0-1.04.84-1.88,1.88-1.88h8.08c1.04,0,1.88.84,1.88,1.88v86.58c0,1.04-.84,1.88-1.88,1.88Z"/>
  <path class="st2" d="M582.44,544.16v-51.03c0-1.04.84-1.88,1.88-1.88h36.43c.95,0,1.74.71,1.98,1.63,1.1,4.16,4.7,10.22,13,10.22s11.91-6.06,13-10.22c.24-.92,1.03-1.63,1.98-1.63h23.11c1.04,0,1.88.84,1.88,1.88v51.03c0,1.04-.84,1.88-1.88,1.88h-89.52c-1.04,0-1.88-.84-1.88-1.88h.02Z"/>
  <circle class="st2" cx="636.19" cy="492.85" r="5.65"/>
  <path class="st2" d="M799.09,490.85c-9.91,20.23-15.88,35.06-24.71,66-7-8.47.09-28.06,17.78-69.21.6-1.4,1.98-2.32,3.51-2.32,2.83,0,4.67,2.98,3.43,5.53h-.01Z"/>
  <path class="st2" d="M285.32,443.91c23.7,18.4,38.86,37.45,47.83,73.41-12.17-32.96-29.83-54.34-50.82-68.91l2.99-4.49h0Z"/>
  <path class="st3" d="M873.35,421.33h22.59c2.08,0,3.76,1.69,3.76,3.76h0c0,2.08-1.69,3.76-3.76,3.76h-22.59c-2.08,0-3.76-1.69-3.76-3.76h0c0-2.08,1.69-3.76,3.76-3.76Z"/>
  <path class="st3" d="M1202.74,421.33h22.59c2.08,0,3.76,1.69,3.76,3.76h0c0,2.08-1.69,3.76-3.76,3.76h-22.59c-2.08,0-3.76-1.69-3.76-3.76h0c0-2.08,1.69-3.76,3.76-3.76Z"/>
  <path class="st3" d="M1534.02,421.33h20.7c2.08,0,3.76,1.69,3.76,3.76h0c0,2.08-1.69,3.76-3.76,3.76h-20.7c-2.08,0-3.76-1.69-3.76-3.76h0c0-2.08,1.69-3.76,3.76-3.76Z"/>
  <path class="st3" d="M1863.41,421.33h22.59c2.08,0,3.76,1.69,3.76,3.76h0c0,2.08-1.69,3.76-3.76,3.76h-22.59c-2.08,0-3.76-1.69-3.76-3.76h0c0-2.08,1.69-3.76,3.76-3.76Z"/>
  <path class="st3" d="M1038.99,421.33h20.7c2.08,0,3.76,1.69,3.76,3.76h0c0,2.08-1.69,3.76-3.76,3.76h-20.7c-2.08,0-3.76-1.69-3.76-3.76h0c0-2.08,1.69-3.76,3.76-3.76Z"/>
  <path class="st3" d="M1368.38,421.33h22.59c2.08,0,3.76,1.69,3.76,3.76h0c0,2.08-1.69,3.76-3.76,3.76h-22.59c-2.08,0-3.76-1.69-3.76-3.76h0c0-2.08,1.69-3.76,3.76-3.76Z"/>
  <path class="st3" d="M1697.77,421.33h22.59c2.08,0,3.76,1.69,3.76,3.76h0c0,2.08-1.69,3.76-3.76,3.76h-22.59c-2.08,0-3.76-1.69-3.76-3.76h0c0-2.08,1.69-3.76,3.76-3.76Z"/>
  <path class="st3" d="M2029.04,421.33h20.7c2.08,0,3.76,1.69,3.76,3.76h0c0,2.08-1.69,3.76-3.76,3.76h-20.7c-2.08,0-3.76-1.69-3.76-3.76h0c0-2.08,1.69-3.76,3.76-3.76Z"/>
  <path class="st3" d="M956.17,421.33h20.7c2.08,0,3.76,1.69,3.76,3.76h0c0,2.08-1.69,3.76-3.76,3.76h-20.7c-2.08,0-3.76-1.69-3.76-3.76h0c0-2.08,1.69-3.76,3.76-3.76Z"/>
  <path class="st3" d="M1285.56,421.33h22.59c2.08,0,3.76,1.69,3.76,3.76h0c0,2.08-1.69,3.76-3.76,3.76h-22.59c-2.08,0-3.76-1.69-3.76-3.76h0c0-2.08,1.69-3.76,3.76-3.76Z"/>
  <path class="st3" d="M1614.95,421.33h22.59c2.08,0,3.76,1.69,3.76,3.76h0c0,2.08-1.69,3.76-3.76,3.76h-22.59c-2.08,0-3.76-1.69-3.76-3.76h0c0-2.08,1.69-3.76,3.76-3.76Z"/>
  <path class="st3" d="M1946.23,421.33h20.7c2.08,0,3.76,1.69,3.76,3.76h0c0,2.08-1.69,3.76-3.76,3.76h-20.7c-2.08,0-3.76-1.69-3.76-3.76h0c0-2.08,1.69-3.76,3.76-3.76Z"/>
  <path class="st3" d="M1119.93,421.33h22.59c2.08,0,3.76,1.69,3.76,3.76h0c0,2.08-1.69,3.76-3.76,3.76h-22.59c-2.08,0-3.76-1.69-3.76-3.76h0c0-2.08,1.69-3.76,3.76-3.76Z"/>
  <path class="st3" d="M1451.2,421.33h20.7c2.08,0,3.76,1.69,3.76,3.76h0c0,2.08-1.69,3.76-3.76,3.76h-20.7c-2.08,0-3.76-1.69-3.76-3.76h0c0-2.08,1.69-3.76,3.76-3.76Z"/>
  <path class="st3" d="M1780.59,421.33h22.59c2.08,0,3.76,1.69,3.76,3.76h0c0,2.08-1.69,3.76-3.76,3.76h-22.59c-2.08,0-3.76-1.69-3.76-3.76h0c0-2.08,1.69-3.76,3.76-3.76Z"/>
  <path class="st2" d="M881.21,511.99c26.04,0,47.15,21.11,47.15,47.15s-21.11,47.15-47.15,47.15-47.15-21.11-47.15-47.15,21.11-47.15,47.15-47.15h0ZM870.89,585.67c-2.44,0-4.42,1.98-4.42,4.42s1.98,4.42,4.42,4.42,4.42-1.98,4.42-4.42-1.98-4.42-4.42-4.42ZM891.52,585.67c-2.44,0-4.42,1.98-4.42,4.42s1.98,4.42,4.42,4.42,4.42-1.98,4.42-4.42-1.98-4.42-4.42-4.42ZM856.15,573.88c-2.44,0-4.42,1.98-4.42,4.42s1.98,4.42,4.42,4.42,4.42-1.98,4.42-4.42-1.98-4.42-4.42-4.42ZM906.25,573.88c-2.44,0-4.42,1.98-4.42,4.42s1.98,4.42,4.42,4.42,4.42-1.98,4.42-4.42-1.98-4.42-4.42-4.42ZM881.21,538.52c-11.39,0-20.63,9.24-20.63,20.63s9.24,20.63,20.63,20.63,20.63-9.24,20.63-20.63-9.24-20.63-20.63-20.63ZM881.21,520.83c-21.16,0-38.31,17.15-38.31,38.31,0,6.98,1.87,13.52,5.13,19.15-.73-4.91-1.59-15.03.77-16.21,2.36-1.18,5.9-2.45,7.37-2.95.49-7.86,6.19-23.58,25.05-23.58s23.57,15.72,23.57,23.58c2.1-.49,6.8-.59,8.84,2.95,2.04,3.54,1.36,12.28.77,16.21,3.26-5.63,5.12-12.18,5.12-19.15,0-21.16-17.15-38.31-38.31-38.31h0Z"/>
  <path class="st2" d="M1771.2,514.94c26.04,0,47.15,21.11,47.15,47.15s-21.11,47.15-47.15,47.15-47.15-21.11-47.15-47.15,21.11-47.15,47.15-47.15ZM1760.89,588.61c-2.44,0-4.42,1.98-4.42,4.42s1.98,4.42,4.42,4.42,4.42-1.98,4.42-4.42-1.98-4.42-4.42-4.42ZM1781.52,588.61c-2.44,0-4.42,1.98-4.42,4.42s1.98,4.42,4.42,4.42,4.42-1.98,4.42-4.42-1.98-4.42-4.42-4.42ZM1746.15,576.83c-2.44,0-4.42,1.98-4.42,4.42s1.98,4.42,4.42,4.42,4.42-1.98,4.42-4.42-1.98-4.42-4.42-4.42ZM1796.25,576.83c-2.44,0-4.42,1.98-4.42,4.42s1.98,4.42,4.42,4.42,4.42-1.98,4.42-4.42-1.98-4.42-4.42-4.42ZM1771.2,541.46c-11.39,0-20.63,9.24-20.63,20.63s9.24,20.63,20.63,20.63,20.63-9.24,20.63-20.63-9.24-20.63-20.63-20.63ZM1771.2,523.78c-21.16,0-38.31,17.15-38.31,38.31,0,6.98,1.87,13.52,5.13,19.16-.73-4.91-1.59-15.03.77-16.21s5.89-2.46,7.37-2.95c.49-7.86,6.19-23.58,25.05-23.58s23.57,15.72,23.57,23.58c2.1-.49,6.8-.59,8.84,2.95,2.04,3.54,1.36,12.28.77,16.21,3.26-5.64,5.12-12.18,5.12-19.16,0-21.16-17.15-38.31-38.31-38.31h0Z"/>
  <path class="st2" d="M221.07,511.99c26.04,0,47.15,21.11,47.15,47.15s-21.11,47.15-47.15,47.15-47.15-21.11-47.15-47.15,21.11-47.15,47.15-47.15h0ZM210.76,585.67c-2.44,0-4.42,1.98-4.42,4.42s1.98,4.42,4.42,4.42,4.42-1.98,4.42-4.42-1.98-4.42-4.42-4.42ZM231.39,585.67c-2.44,0-4.42,1.98-4.42,4.42s1.98,4.42,4.42,4.42,4.42-1.98,4.42-4.42-1.98-4.42-4.42-4.42ZM196.02,573.88c-2.44,0-4.42,1.98-4.42,4.42s1.98,4.42,4.42,4.42,4.42-1.98,4.42-4.42-1.98-4.42-4.42-4.42ZM246.12,573.88c-2.44,0-4.42,1.98-4.42,4.42s1.98,4.42,4.42,4.42,4.42-1.98,4.42-4.42-1.98-4.42-4.42-4.42ZM221.07,538.52c-11.39,0-20.63,9.24-20.63,20.63s9.24,20.63,20.63,20.63,20.63-9.24,20.63-20.63-9.24-20.63-20.63-20.63ZM221.07,520.83c-21.16,0-38.31,17.15-38.31,38.31,0,6.98,1.87,13.52,5.12,19.15-.73-4.91-1.59-15.03.77-16.21s5.9-2.45,7.37-2.95c.49-7.86,6.19-23.58,25.05-23.58s23.57,15.72,23.58,23.58c2.09-.49,6.8-.59,8.84,2.95,2.04,3.54,1.36,12.28.77,16.21,3.26-5.63,5.13-12.18,5.13-19.15,0-21.16-17.15-38.31-38.31-38.31h-.01Z"/>
  <path class="st2" d="M1055.08,511.99c26.04,0,47.15,21.11,47.15,47.15s-21.11,47.15-47.15,47.15-47.15-21.11-47.15-47.15,21.11-47.15,47.15-47.15h0ZM1044.76,585.67c-2.44,0-4.42,1.98-4.42,4.42s1.98,4.42,4.42,4.42,4.42-1.98,4.42-4.42-1.98-4.42-4.42-4.42ZM1065.39,585.67c-2.44,0-4.42,1.98-4.42,4.42s1.98,4.42,4.42,4.42,4.42-1.98,4.42-4.42-1.98-4.42-4.42-4.42ZM1030.03,573.88c-2.44,0-4.42,1.98-4.42,4.42s1.98,4.42,4.42,4.42,4.42-1.98,4.42-4.42-1.98-4.42-4.42-4.42ZM1080.13,573.88c-2.44,0-4.42,1.98-4.42,4.42s1.98,4.42,4.42,4.42,4.42-1.98,4.42-4.42-1.98-4.42-4.42-4.42ZM1055.08,538.52c-11.39,0-20.63,9.24-20.63,20.63s9.24,20.63,20.63,20.63,20.63-9.24,20.63-20.63-9.24-20.63-20.63-20.63ZM1055.08,520.83c-21.16,0-38.31,17.15-38.31,38.31,0,6.98,1.87,13.52,5.13,19.15-.73-4.91-1.59-15.03.77-16.21s5.9-2.45,7.37-2.95c.49-7.86,6.19-23.58,25.05-23.58s23.57,15.72,23.57,23.58c2.1-.49,6.8-.59,8.84,2.95,2.04,3.54,1.36,12.28.77,16.21,3.26-5.63,5.12-12.18,5.12-19.15,0-21.16-17.15-38.31-38.31-38.31Z"/>
  <path class="st2" d="M1953.92,514.94c26.03,0,47.15,21.11,47.15,47.15s-21.12,47.15-47.15,47.15-47.15-21.11-47.15-47.15,21.1-47.15,47.15-47.15ZM1943.61,588.61c-2.45,0-4.42,1.98-4.42,4.42s1.98,4.42,4.42,4.42,4.4-1.98,4.42-4.42c0-2.44-2-4.42-4.42-4.42ZM1964.24,588.61c-2.45,0-4.42,1.98-4.42,4.42s1.98,4.42,4.42,4.42,4.4-1.98,4.42-4.42c-.02-2.44-2-4.42-4.42-4.42ZM1928.87,576.83c-2.45,0-4.42,1.98-4.42,4.42s1.98,4.42,4.42,4.42,4.42-1.98,4.42-4.42-1.98-4.42-4.42-4.42ZM1978.98,576.83c-2.45,0-4.42,1.98-4.42,4.42s1.98,4.42,4.42,4.42,4.4-1.98,4.4-4.42-1.98-4.42-4.4-4.42ZM1953.92,541.46c-11.41,0-20.63,9.24-20.63,20.63s9.22,20.63,20.63,20.63,20.63-9.24,20.63-20.63-9.24-20.63-20.63-20.63ZM1953.92,523.78c-21.16,0-38.32,17.15-38.32,38.31,0,6.98,1.86,13.52,5.14,19.16-.73-4.91-1.6-15.03.75-16.21,2.37-1.18,5.91-2.46,7.38-2.95.49-7.86,6.19-23.58,25.05-23.58s23.57,15.72,23.57,23.58c2.11-.49,6.79-.59,8.85,2.95,2.03,3.54,1.36,12.28.77,16.21,3.26-5.64,5.12-12.18,5.12-19.16,0-21.16-17.15-38.31-38.3-38.31h-.01Z"/>
  <path class="st2" d="M280.01,376.43c-6.57.66-12.87,1.31-18.93,1.95,1.2-3.2,1.8-6.64,1.92-10.79-52.36,6.09-91.25,8.23-94.8,23.95-25.36,5.07-48.1,11.38-74.52,20.25-.04,0-7.33-.03,4.42-10.31,11.79-10.31,99.2-30.54,181.91-44.21v19.16h0Z"/>
  <path class="st2" d="M280.02,398.53c-65.69,2.86-102.16,7.27-158.31,24.44-4.2,1.28-8.78.44-12.21-2.3l-9.25-7.4c26.27-7.41,48.07-12.98,67.86-17.22.13.8.32,1.63.59,2.49,15.84,7.85,34.64,6.39,79.57-2.95,4.57-4.56,7.89-8.29,10.21-12,6.9-.47,14.05-.89,21.54-1.27v16.21Z"/>
  <path class="st2" d="M310.57,357.68c-10.36-.55-14.85-.38-22.59,0v18.47c7.12-.45,12.18-.47,22.59,0v-18.47Z"/>
  <path class="st2" d="M310.57,382.19c-10.65-.55-15.45-.5-22.59,0v16.55c7.71-.43,12.34-.55,22.59,0v-16.55Z"/>
  <path class="st4" d="M463.47,398.17l-148.09.36v-16.21l8.84-.02v5.55c0,2.76,2,5.12,4.73,5.5,9.24,1.27,21.79,2.26,21.79-.72v-10.4l112.72-.27v16.21h0ZM330.46,360.41c2.1,2.93.94,7.05-2.37,8.47l-.44.19c-2.08.89-3.42,2.93-3.42,5.19v2.15l-8.84.02v-19.15l12.81-.03,2.26,3.16ZM464.2,376.04l-113.46.3v-6.96c0-2.02,1.08-3.88,2.82-4.89l6.36-3.67c.75-.43,1.39-1.03,1.87-1.74l1.29-1.92,101.13-.27v19.16h-.01Z"/>
  <path class="st4" d="M598.55,357.33h-69.64v18.82h69.64v-18.82Z"/>
  <path class="st4" d="M671.96,357.33h-58.35v18.82h58.35v-18.82Z"/>
  <path class="st4" d="M698.31,357.33h-11.29v18.82h11.29v-18.82Z"/>
  <path class="st4" d="M751.01,357.33h-45.17v18.82h45.17v-18.82Z"/>
  <path class="st4" d="M598.55,381.8h-69.64v16.94h69.64v-16.94Z"/>
  <path class="st4" d="M671.96,381.8h-58.35v16.94h58.35v-16.94Z"/>
  <path class="st4" d="M698.31,381.8h-11.29v16.94h11.29v-16.94Z"/>
  <path class="st4" d="M751.01,381.8h-45.17v16.94h45.17v-16.94Z"/>
</svg>