<?xml version="1.0" encoding="UTF-8"?>
<svg id="Layer_1" data-name="Layer 1" xmlns="http://www.w3.org/2000/svg" xmlns:xlink="http://www.w3.org/1999/xlink" viewBox="0 0 1138.4 379.47">
  <defs>
    <style>
      .cls-1, .cls-2 {
        fill: none;
      }

      .cls-3, .cls-4 {
        fill: #5789f4;
      }

      .cls-5 {
        fill: #3858a8;
      }

      .cls-6 {
        fill: #1c60f2;
      }

      .cls-7 {
        clip-path: url(#clippath-1);
      }

      .cls-8 {
        fill: #9fbbf7;
      }

      .cls-9 {
        fill: #fff;
      }

      .cls-4 {
        fill-rule: evenodd;
      }

      .cls-2 {
        stroke: #192129;
        stroke-width: 10.37px;
      }

      .cls-10 {
        fill: #192129;
      }

      .cls-11 {
        fill: #0046e0;
      }

      .cls-12 {
        fill: #c7d7fa;
      }

      .cls-13 {
        clip-path: url(#clippath);
      }
    </style>
    <clipPath id="clippath">
      <rect class="cls-1" width="1138.4" height="379.47"/>
    </clipPath>
    <clipPath id="clippath-1">
      <rect class="cls-1" x="537.95" y="35.9" width="252.96" height="77.17"/>
    </clipPath>
  </defs>
  <g class="cls-13">
    <rect class="cls-9" x="161.42" y="77.61" width="1138.4" height="379.47"/>
    <path class="cls-12" d="M170.27,271.03c-10.48,9.59-50.45,37.82-51.12,38.46l893.11.8c-2.18-1.19-4.83-6.96-5.96-7.2-2.2-.65-4.1-1.65-6.08-3.28-4.89-5.3-6.82-10.54-10.11-11.41-5.35-1.42-14.42-2.17-18.76-5.42-1.78-1.33-6.26-9.67-15.77-19.59-6.52-6.81-10.38-10.17-13.4-11.43-3.95-1.65-18.87-3.39-26.72-3.84-6.59-.38-16.32-2.09-26.25-.27-7.23,1.33-12.16,3.62-15.6,2.99-6.06-1.12-11.72-11.72-15.63-14.56-5.19-3.77-14.24-13.27-20.82-13.7-2.98-.19-5.15.12-7.26.62-8.92,2.08-18.14-.01-27.3-5.27-5.96-3.43-16.78-1.12-22.92-4.6-7.57-4.3-12.12-4.79-25.3-16.79-7.15-6.51-11.02-13.88-17.36-13.76-5.77.11-9.57,1.66-14.81,5.45-8.16,5.9-14.16,5.25-21.66,8.87-11.35,5.49-20,9.82-27.54,9.99-6.12.14-16.64.18-23.06-.2-8.68-.5-11.98-.9-17.05-2.92-11.32-4.5-20.17-7.98-27.43-8.33-5.6-.27-14.92-1.08-21-.02-9.11,1.61-14.63,3.64-18.89,7.56-5.41,4.97-8.82,8.85-10.51,9.33-3.07.87-6.31,1.42-10.52-.58-2.66-1.26-12.92-7.91-27.52-14.92-6.53-3.13-9.84-3.74-13.71-3.31-8.76.97-17.58,1.79-23.09-2.78-8.8-7.29-12.8-1.3-16.9-3.59-2.38-1.33-4.82-2.13-6.62-4.16-4.23-4.74-11.59-13.8-23.58-11.81-6.13,1.02-9.27,7.61-11.13,12.77-2.14,5.95-3.54,7.51-10.07,17.4-5.25,7.94-9.18.92-12.01,3.25-4.22,3.47-8.34,7.27-12.8,9.05-8.65,3.45-12.69,4.05-16.93,4.11-5.99.09-10.47-1.52-18.41-3.4-4.03-.95-7.25-.03-20.12,4.78-6.59,2.47-16.91,5.66-24.97,9.18-14.12,6.19-22.95,11.57-28.46,11.95-6.46.45-18.12-6.34-26.85-4.35-7.2,1.65-13.18,6.69-16.64,5.28-7.06-2.88-16.46-9.68-20.57-9.03-3.64.57-7.86,1.49-16.38,9.85-4.6,4.51-11.88,11.85-15.64,16.03-4.36,4.83-6.17,7.52-11.91,12.77h0s0,0,0,0Z"/>
    <path class="cls-8" d="M199.54,289.7c-6.52,4.92-16.83,11.12-28.81,17.13l773.74,2.49c-.21-1.83-.57-2.41-.98-2.97-.86-1.1-3.37-3.8-6.62-7.21-2.83-2.67-5.13-7.2-22.48-8.97-8.98-.92-15.25-.77-18.3-1.9-3.41-1.27-7.74-7.12-16.47-6.88-15.06.41-26.28.78-30.58,2.69-7.66,3.4-14.55,7.28-18.92,7.89-5.62.78-12.08-1.25-23.42.29-7.17.98-13.36,2.99-20.84.52-3.75-1.24-13.18-5.16-22.79-13.34-5.28-4.5-6.43-7.34-7.77-8.19-3.82-2.45-8.14-7.86-21.36-19.52-6.57-5.79-10.58-9.44-13.55-9.41-4.94.05-8.63.56-10.41,1.23-5.84,2.24-14.48,3.56-18.2,7.6-1.37,1.49-2.13,3.14-3.13,4.73-2.46,3.93-4.85,7.4-10.07,9.58-6.91,2.88-17.67,2.16-22.97,6.47-7.34,5.96-16.07,15.89-20.31,16.18-2.75.19-11.66-1.08-25.7-3.28-6.81-1.07-13.08-1.77-17.14-2.8-6.05-1.53-11.36-3.97-16.27-9.63-5.51-6.34-9.37-11.69-12.33-13.86-5.12-3.75-10.96-7.73-18.77-6.47-5.65.91-12.13,1.98-17.28,2.75-3.58.54-6.97,2.53-14.12,1-2.53-.54-4.39-2.52-6.85-4.27-2.83-2.02-10.27-3.03-14.61-5.89-4.76-3.13-11.06-8.79-19.05-7.06-3.35.72-5.96,1.7-11.75,7.4-4.94,4.85-13.3,13.83-18.89,18.74-7.51,6.59-10.98,8.5-13.75,8.52-2.98.03-10.38-1.84-22.8-2.93-6.58-.57-13.76-.3-18.09-.65-8.77-.72-15.44-1.66-18.31-4.64-3.57-3.72-5.94-10.5-11.91-14.85-1.28-.93-2.41-.89-4.26-.44-8.68,2.12-16.1.56-19.76,2.52-1.51.81-3.04,3.93-6.34,4.79-4.33,1.13-7.82.72-22.08,11.45-6.7,5.04-10.94,7.96-14.12,7.9-7.63-.13-11.22-2.15-22.02-6.56-8.69-3.55-15.03-6.13-18.78-6.01-9.68.3-17.2-.14-27.47,7.65-12.52,9.5-20.39,16.02-23.31,18.23h0,0Z"/>
    <path class="cls-10" d="M20.03,355.75v-23h8.04c1.6,0,2.92.28,3.96.83,1.04.54,1.81,1.28,2.32,2.21.51.92.76,1.94.76,3.06,0,.99-.18,1.81-.53,2.45-.34.64-.8,1.15-1.37,1.53-.56.37-1.17.65-1.83.83v.22c.7.05,1.41.29,2.12.74s1.31,1.09,1.79,1.93.72,1.86.72,3.08-.26,2.19-.79,3.11-1.35,1.65-2.48,2.19c-1.13.54-2.6.81-4.41.81h-8.32ZM22.82,353.28h5.53c1.82,0,3.11-.35,3.88-1.06.77-.71,1.16-1.57,1.16-2.58,0-.78-.2-1.5-.59-2.16-.4-.67-.96-1.2-1.7-1.59-.74-.4-1.6-.61-2.61-.61h-5.66v7.99h0ZM22.82,342.86h5.17c.84,0,1.59-.16,2.27-.5.68-.33,1.22-.79,1.62-1.39.4-.6.61-1.3.61-2.11,0-1.01-.35-1.87-1.06-2.57-.7-.71-1.82-1.07-3.35-1.07h-5.26v7.64h0ZM45.31,356.15c-1.09,0-2.08-.21-2.98-.62-.89-.42-1.6-1.02-2.12-1.81-.53-.79-.79-1.75-.79-2.88,0-.99.19-1.79.58-2.4.39-.62.91-1.11,1.56-1.46.65-.35,1.37-.61,2.16-.79.79-.18,1.59-.32,2.39-.43,1.05-.13,1.9-.24,2.55-.3.66-.07,1.14-.2,1.44-.37.31-.17.46-.47.46-.9v-.09c0-1.11-.3-1.97-.91-2.58-.6-.61-1.51-.92-2.73-.92s-2.26.28-2.98.83-1.22,1.15-1.52,1.77l-2.52-.9c.45-1.05,1.05-1.86,1.79-2.45.75-.59,1.58-1,2.47-1.23.9-.24,1.78-.36,2.65-.36.55,0,1.19.07,1.91.2.73.13,1.43.39,2.1.8.68.4,1.25,1.01,1.7,1.83s.67,1.91.67,3.28v11.36h-2.65v-2.34h-.13c-.18.37-.48.77-.9,1.2s-.98.79-1.67,1.09-1.55.45-2.55.45h0s0,0,0,0ZM45.72,353.77c1.05,0,1.93-.21,2.65-.62.73-.41,1.27-.95,1.64-1.6.37-.65.56-1.34.56-2.05v-2.43c-.11.14-.36.26-.74.37-.37.1-.81.2-1.3.28-.49.08-.96.14-1.43.2-.46.05-.83.1-1.11.13-.69.09-1.33.24-1.93.44-.59.19-1.07.49-1.44.89-.36.39-.54.92-.54,1.6,0,.92.34,1.62,1.02,2.09.69.46,1.56.7,2.62.7ZM60.71,345.37v10.38h-2.65v-17.25h2.56v2.69h.22c.4-.88,1.02-1.58,1.84-2.11.82-.54,1.89-.81,3.19-.81,1.17,0,2.19.24,3.06.72.88.47,1.56,1.19,2.04,2.16.49.96.73,2.17.73,3.64v10.96h-2.65v-10.78c0-1.36-.35-2.41-1.06-3.17-.7-.76-1.67-1.15-2.9-1.15-.85,0-1.6.18-2.27.55-.66.37-1.18.9-1.56,1.6-.38.7-.57,1.56-.57,2.56h0ZM83.52,362.58c-1.28,0-2.38-.16-3.3-.5-.92-.32-1.69-.75-2.3-1.28-.61-.53-1.09-1.09-1.45-1.68l2.11-1.48c.24.31.54.67.91,1.08.37.41.87.77,1.51,1.07.64.3,1.49.46,2.53.46,1.39,0,2.54-.34,3.45-1.01s1.36-1.73,1.36-3.17v-3.5h-.22c-.19.31-.47.7-.83,1.17-.35.46-.86.87-1.53,1.22-.66.35-1.55.53-2.67.53-1.39,0-2.64-.33-3.75-.99-1.1-.66-1.97-1.62-2.62-2.87-.64-1.26-.95-2.79-.95-4.58s.31-3.3.93-4.61c.62-1.32,1.49-2.34,2.6-3.06,1.11-.72,2.39-1.09,3.84-1.09,1.12,0,2.01.19,2.67.56.67.37,1.17.79,1.53,1.26.36.46.64.85.83,1.15h.27v-2.74h2.56v17.74c0,1.48-.34,2.69-1.01,3.62-.67.94-1.57,1.62-2.69,2.05-1.12.44-2.37.66-3.75.66h-.02ZM83.43,353.1c1.06,0,1.96-.24,2.69-.73.74-.49,1.29-1.19,1.67-2.1s.57-2.01.57-3.28-.19-2.34-.56-3.29-.93-1.7-1.66-2.24c-.74-.54-1.64-.81-2.72-.81s-2.06.29-2.81.85c-.74.57-1.3,1.33-1.67,2.29-.37.96-.55,2.02-.55,3.19s.19,2.26.56,3.18c.38.91.95,1.63,1.68,2.16.75.52,1.68.77,2.79.77h0ZM100.9,356.15c-1.09,0-2.08-.21-2.98-.62-.89-.42-1.6-1.02-2.12-1.81-.53-.79-.79-1.75-.79-2.88,0-.99.19-1.79.58-2.4.39-.62.91-1.11,1.56-1.46.65-.35,1.37-.61,2.16-.79.79-.18,1.59-.32,2.39-.43,1.05-.13,1.9-.24,2.55-.3.66-.07,1.14-.2,1.44-.37.3-.17.46-.47.46-.9v-.09c0-1.11-.3-1.97-.91-2.58-.6-.61-1.51-.92-2.73-.92s-2.26.28-2.98.83c-.72.55-1.22,1.15-1.52,1.77l-2.52-.9c.45-1.05,1.05-1.86,1.79-2.45.75-.59,1.58-1,2.47-1.23.9-.24,1.78-.36,2.65-.36.55,0,1.19.07,1.91.2.73.13,1.43.39,2.1.8.68.4,1.25,1.01,1.7,1.83.45.82.67,1.91.67,3.28v11.36h-2.65v-2.34h-.14c-.18.37-.48.77-.9,1.2-.42.43-.98.79-1.67,1.09-.7.3-1.55.45-2.55.45h0s0,0,0,0ZM101.3,353.77c1.05,0,1.93-.21,2.65-.62.73-.41,1.27-.95,1.64-1.6.37-.65.56-1.34.56-2.05v-2.43c-.11.14-.36.26-.74.37-.37.1-.81.2-1.3.28-.49.08-.96.14-1.43.2-.46.05-.83.1-1.11.13-.69.09-1.33.24-1.93.44-.59.19-1.07.49-1.44.89-.36.39-.54.92-.54,1.6,0,.92.34,1.62,1.02,2.09.69.46,1.56.7,2.62.7h0ZM116.29,332.75v23h-2.65v-23h2.65ZM128.15,356.11c-1.56,0-2.92-.37-4.1-1.11-1.17-.74-2.08-1.78-2.74-3.11-.65-1.33-.98-2.89-.98-4.67s.33-3.36.98-4.71c.66-1.34,1.57-2.38,2.74-3.12,1.18-.74,2.54-1.11,4.1-1.11s2.92.37,4.09,1.11c1.18.74,2.09,1.78,2.74,3.12.66,1.34.99,2.91.99,4.71s-.33,3.34-.99,4.67c-.65,1.33-1.57,2.37-2.74,3.11-1.17.74-2.53,1.11-4.09,1.11ZM128.15,353.73c1.18,0,2.16-.3,2.92-.91s1.33-1.4,1.7-2.39c.37-.99.55-2.06.55-3.21s-.18-2.23-.55-3.22c-.37-.99-.93-1.8-1.7-2.42-.76-.61-1.74-.92-2.92-.92s-2.16.31-2.92.92-1.33,1.42-1.7,2.42c-.37.99-.55,2.07-.55,3.22s.18,2.22.55,3.21c.37.99.93,1.78,1.7,2.39.76.61,1.74.91,2.92.91ZM140.01,355.75v-17.25h2.56v2.61h.18c.31-.85.88-1.55,1.71-2.08.82-.53,1.75-.8,2.79-.8.19,0,.44,0,.73.01.29,0,.51.02.66.03v2.69c-.09-.02-.3-.06-.62-.1-.31-.05-.65-.08-1-.08-.84,0-1.59.18-2.24.53-.65.34-1.17.82-1.55,1.44-.37.61-.56,1.3-.56,2.08v10.91h-2.66ZM158.49,356.11c-1.66,0-3.09-.37-4.3-1.1-1.2-.74-2.12-1.77-2.77-3.1-.64-1.33-.96-2.88-.96-4.65s.32-3.32.96-4.67c.65-1.36,1.56-2.41,2.72-3.17,1.17-.76,2.53-1.15,4.09-1.15.9,0,1.79.15,2.66.45s1.67.79,2.39,1.46c.72.67,1.29,1.55,1.72,2.65.43,1.1.64,2.45.64,4.07v1.12h-13.3v-2.29h10.6c0-.97-.19-1.84-.58-2.61-.38-.76-.93-1.36-1.64-1.81-.7-.44-1.54-.66-2.49-.66-1.06,0-1.97.26-2.74.79-.76.51-1.35,1.19-1.76,2.02-.41.83-.62,1.72-.62,2.67v1.53c0,1.3.22,2.41.67,3.31.46.9,1.09,1.59,1.9,2.05.81.46,1.75.7,2.82.7.7,0,1.33-.1,1.89-.29.57-.2,1.06-.5,1.47-.9.41-.4.73-.91.96-1.51l2.56.72c-.27.87-.72,1.63-1.36,2.29-.64.65-1.42,1.16-2.36,1.53-.94.36-1.99.54-3.16.54h0ZM185.02,349.19c-.91,0-1.73-.22-2.48-.66-.75-.45-1.35-1.05-1.79-1.79-.44-.75-.66-1.58-.66-2.48s.22-1.74.66-2.48c.45-.75,1.05-1.35,1.79-1.79.75-.45,1.58-.67,2.48-.67s1.74.22,2.48.67c.75.44,1.35,1.04,1.79,1.79.45.74.67,1.57.67,2.48s-.22,1.73-.67,2.48c-.44.75-1.04,1.35-1.79,1.79-.74.44-1.57.66-2.48.66ZM212.69,355.75h-7.1v-23h7.41c2.23,0,4.14.46,5.73,1.38,1.59.91,2.8,2.23,3.65,3.94.85,1.71,1.27,3.75,1.27,6.13s-.43,4.46-1.28,6.19c-.85,1.72-2.1,3.04-3.73,3.97-1.63.92-3.62,1.38-5.95,1.38h0ZM208.38,353.28h4.13c1.9,0,3.48-.37,4.73-1.1,1.25-.73,2.18-1.78,2.8-3.13.61-1.36.92-2.97.92-4.84s-.3-3.46-.91-4.79c-.61-1.35-1.51-2.38-2.72-3.1-1.2-.73-2.71-1.09-4.5-1.09h-4.45v18.06h0ZM235.19,356.11c-1.66,0-3.09-.37-4.3-1.1-1.2-.74-2.12-1.77-2.77-3.1-.64-1.33-.96-2.88-.96-4.65s.32-3.32.96-4.67c.65-1.36,1.56-2.41,2.72-3.17,1.17-.76,2.53-1.15,4.09-1.15.9,0,1.79.15,2.66.45s1.67.79,2.39,1.46c.72.67,1.29,1.55,1.72,2.65.43,1.1.64,2.45.64,4.07v1.12h-13.3v-2.29h10.6c0-.97-.19-1.84-.58-2.61-.38-.76-.93-1.36-1.64-1.81-.7-.44-1.54-.66-2.49-.66-1.06,0-1.97.26-2.74.79-.76.51-1.35,1.19-1.76,2.02s-.62,1.72-.62,2.67v1.53c0,1.3.22,2.41.67,3.31.46.9,1.09,1.59,1.9,2.05.81.46,1.75.7,2.82.7.7,0,1.33-.1,1.89-.29.57-.2,1.06-.5,1.47-.9.41-.4.73-.91.96-1.51l2.56.72c-.27.87-.72,1.63-1.36,2.29-.64.65-1.42,1.16-2.36,1.53-.94.36-1.99.54-3.16.54h0,0ZM249.02,345.37v10.38h-2.65v-17.25h2.56v2.69h.22c.4-.88,1.02-1.58,1.84-2.11.82-.54,1.89-.81,3.19-.81,1.17,0,2.19.24,3.06.72.88.47,1.56,1.19,2.04,2.16.49.96.73,2.17.73,3.64v10.96h-2.65v-10.78c0-1.36-.35-2.41-1.06-3.17-.7-.76-1.67-1.15-2.9-1.15-.85,0-1.6.18-2.27.55-.66.37-1.18.9-1.56,1.6-.38.7-.57,1.56-.57,2.56h0ZM278.36,338.5l-6.38,17.25h-2.69l-6.38-17.25h2.87l4.76,13.75h.18l4.76-13.75h2.88ZM288.46,356.11c-1.66,0-3.09-.37-4.3-1.1-1.2-.74-2.12-1.77-2.77-3.1-.64-1.33-.96-2.88-.96-4.65s.32-3.32.96-4.67c.65-1.36,1.56-2.41,2.72-3.17,1.17-.76,2.53-1.15,4.09-1.15.9,0,1.78.15,2.66.45s1.67.79,2.39,1.46c.72.67,1.29,1.55,1.72,2.65.43,1.1.64,2.45.64,4.07v1.12h-13.3v-2.29h10.6c0-.97-.19-1.84-.58-2.61-.38-.76-.93-1.36-1.64-1.81-.7-.44-1.54-.66-2.49-.66-1.06,0-1.97.26-2.74.79-.76.51-1.35,1.19-1.76,2.02s-.62,1.72-.62,2.67v1.53c0,1.3.22,2.41.67,3.31.46.9,1.09,1.59,1.9,2.05.81.46,1.75.7,2.82.7.7,0,1.33-.1,1.89-.29.57-.2,1.06-.5,1.47-.9.41-.4.73-.91.96-1.51l2.56.72c-.27.87-.72,1.63-1.36,2.29-.64.65-1.42,1.16-2.36,1.53-.94.36-1.99.54-3.16.54h0ZM299.64,355.75v-17.25h2.56v2.61h.18c.31-.85.88-1.55,1.71-2.08.82-.53,1.75-.8,2.79-.8.19,0,.44,0,.73.01.29,0,.51.02.66.03v2.69c-.09-.02-.3-.06-.62-.1-.31-.05-.65-.08-1-.08-.84,0-1.59.18-2.24.53-.65.34-1.17.82-1.55,1.44-.37.61-.56,1.3-.56,2.08v10.91h-2.66,0ZM326.77,349.19c-.91,0-1.73-.22-2.48-.66-.75-.45-1.35-1.05-1.8-1.79-.44-.75-.66-1.58-.66-2.48s.22-1.74.66-2.48c.45-.75,1.05-1.35,1.8-1.79.75-.45,1.57-.67,2.48-.67s1.74.22,2.48.67c.75.44,1.35,1.04,1.79,1.79.45.74.67,1.57.67,2.48s-.22,1.73-.67,2.48c-.44.75-1.04,1.35-1.79,1.79-.74.44-1.57.66-2.48.66ZM347.34,355.75v-23h7.77c1.8,0,3.28.33,4.42.98,1.15.64,2,1.52,2.56,2.62.55,1.1.83,2.33.83,3.68s-.28,2.59-.83,3.7c-.54,1.11-1.39,1.99-2.54,2.65-1.15.65-2.61.98-4.4.98h-5.57v-2.47h5.48c1.23,0,2.23-.21,2.98-.64s1.29-1,1.63-1.73c.35-.73.52-1.56.52-2.48s-.17-1.75-.52-2.47c-.34-.73-.88-1.3-1.64-1.71-.75-.42-1.76-.63-3.01-.63h-4.9v20.53h-2.79,0ZM373.87,356.11c-1.55,0-2.92-.37-4.1-1.11-1.17-.74-2.08-1.78-2.74-3.11-.65-1.33-.98-2.89-.98-4.67s.33-3.36.98-4.71c.66-1.34,1.57-2.38,2.74-3.12,1.17-.74,2.54-1.11,4.1-1.11s2.92.37,4.09,1.11c1.17.74,2.09,1.78,2.74,3.12.66,1.34.99,2.91.99,4.71s-.33,3.34-.99,4.67c-.65,1.33-1.57,2.37-2.74,3.11-1.17.74-2.53,1.11-4.09,1.11ZM373.87,353.73c1.18,0,2.16-.3,2.92-.91s1.33-1.4,1.7-2.39c.37-.99.55-2.06.55-3.21s-.18-2.23-.55-3.22c-.37-.99-.93-1.8-1.7-2.42-.76-.61-1.74-.92-2.92-.92s-2.16.31-2.92.92-1.33,1.42-1.7,2.42c-.37.99-.55,2.07-.55,3.22s.18,2.22.55,3.21c.37.99.93,1.78,1.7,2.39.76.61,1.74.91,2.92.91ZM385.73,355.75v-17.25h2.56v2.61h.18c.31-.85.88-1.55,1.71-2.08.82-.53,1.75-.8,2.79-.8.19,0,.44,0,.73.01.29,0,.51.02.66.03v2.69c-.09-.02-.3-.06-.62-.1-.31-.05-.65-.08-1-.08-.84,0-1.59.18-2.24.53-.65.34-1.17.82-1.55,1.44-.37.61-.56,1.3-.56,2.08v10.91h-2.66ZM406.08,338.5v2.24h-8.94v-2.24h8.94ZM399.75,334.37h2.65v16.44c0,.75.11,1.31.32,1.68.22.37.51.61.85.74.35.12.72.18,1.11.18.29,0,.53-.02.72-.05.19-.04.34-.07.45-.09l.54,2.38c-.18.07-.43.13-.75.2-.32.07-.73.11-1.22.11-.75,0-1.48-.16-2.2-.48-.71-.32-1.3-.81-1.77-1.47-.46-.66-.7-1.49-.7-2.49v-17.16h0s0,0,0,0ZM413.09,332.75v23h-2.65v-23h2.65ZM423.02,356.15c-1.09,0-2.08-.21-2.98-.62-.89-.42-1.6-1.02-2.12-1.81-.52-.79-.79-1.75-.79-2.88,0-.99.19-1.79.58-2.4.39-.62.91-1.11,1.56-1.46.65-.35,1.37-.61,2.16-.79.79-.18,1.59-.32,2.39-.43,1.05-.13,1.9-.24,2.55-.3.66-.07,1.14-.2,1.44-.37.3-.17.46-.47.46-.9v-.09c0-1.11-.3-1.97-.91-2.58-.6-.61-1.51-.92-2.73-.92s-2.26.28-2.98.83-1.22,1.15-1.52,1.77l-2.52-.9c.45-1.05,1.05-1.86,1.79-2.45.75-.59,1.58-1,2.47-1.23.9-.24,1.78-.36,2.65-.36.55,0,1.19.07,1.91.2.72.13,1.43.39,2.1.8.68.4,1.25,1.01,1.7,1.83.45.82.67,1.91.67,3.28v11.36h-2.65v-2.34h-.13c-.18.37-.48.77-.9,1.2s-.98.79-1.67,1.09-1.55.45-2.55.45h0s0,0,0,0ZM423.43,353.77c1.05,0,1.93-.21,2.65-.62.73-.41,1.27-.95,1.64-1.6.37-.65.56-1.34.56-2.05v-2.43c-.11.14-.36.26-.74.37-.37.1-.81.2-1.3.28-.49.08-.96.14-1.43.2-.46.05-.83.1-1.11.13-.69.09-1.33.24-1.93.44-.59.19-1.07.49-1.44.89-.36.39-.54.92-.54,1.6,0,.92.34,1.62,1.02,2.09.69.46,1.56.7,2.61.7h0ZM438.41,345.37v10.38h-2.65v-17.25h2.56v2.69h.22c.4-.88,1.02-1.58,1.84-2.11.82-.54,1.89-.81,3.19-.81,1.17,0,2.19.24,3.07.72.88.47,1.55,1.19,2.04,2.16.49.96.73,2.17.73,3.64v10.96h-2.65v-10.78c0-1.36-.35-2.41-1.06-3.17-.7-.76-1.67-1.15-2.9-1.15-.85,0-1.6.18-2.27.55-.66.37-1.18.9-1.56,1.6-.38.7-.57,1.56-.57,2.56h0ZM460.77,356.11c-1.44,0-2.71-.36-3.81-1.09-1.1-.73-1.96-1.77-2.58-3.1-.62-1.34-.93-2.92-.93-4.75s.31-3.38.93-4.72c.62-1.33,1.49-2.36,2.6-3.09,1.11-.72,2.39-1.09,3.84-1.09,1.12,0,2.01.19,2.66.56.66.37,1.16.79,1.51,1.26.35.46.62.85.82,1.15h.22v-8.49h2.65v23h-2.56v-2.65h-.31c-.19.31-.47.71-.83,1.19-.36.47-.87.9-1.54,1.27-.67.37-1.55.55-2.66.55h0ZM461.13,353.73c1.06,0,1.96-.28,2.69-.83.73-.56,1.29-1.34,1.67-2.32.38-.99.57-2.15.57-3.44s-.19-2.42-.56-3.38c-.37-.97-.93-1.73-1.66-2.27-.73-.54-1.64-.82-2.72-.82s-2.06.29-2.8.87c-.74.57-1.3,1.35-1.67,2.32-.37.97-.55,2.07-.55,3.28s.19,2.34.56,3.35c.38.99.94,1.79,1.68,2.38.75.58,1.68.88,2.79.88h0ZM489.26,349.19c-.91,0-1.73-.22-2.48-.66-.75-.45-1.35-1.05-1.79-1.79-.44-.75-.66-1.58-.66-2.48s.22-1.74.66-2.48c.45-.75,1.05-1.35,1.79-1.79.75-.45,1.58-.67,2.48-.67s1.74.22,2.48.67c.75.44,1.35,1.04,1.79,1.79.45.74.67,1.57.67,2.48s-.22,1.73-.67,2.48c-.44.75-1.04,1.35-1.79,1.79-.74.44-1.57.66-2.48.66ZM522.41,338.5c-.14-1.14-.68-2.02-1.64-2.65-.96-.63-2.13-.95-3.52-.95-1.02,0-1.91.16-2.67.5-.75.33-1.35.78-1.77,1.36-.42.58-.63,1.23-.63,1.97,0,.61.14,1.14.44,1.58.3.43.68.8,1.15,1.09.46.29.95.52,1.46.71.51.18.98.33,1.4.44l2.34.63c.6.16,1.27.37,2,.65.74.28,1.45.66,2.12,1.14.68.47,1.24,1.08,1.68,1.82s.66,1.65.66,2.73c0,1.24-.32,2.37-.98,3.37-.64,1-1.59,1.8-2.83,2.39-1.23.59-2.74.89-4.5.89-1.65,0-3.07-.27-4.28-.8-1.2-.53-2.14-1.27-2.83-2.22-.68-.95-1.07-2.05-1.15-3.31h2.87c.07.87.37,1.59.88,2.16.52.56,1.17.98,1.95,1.26.79.27,1.65.4,2.56.4,1.06,0,2.02-.17,2.87-.52.85-.35,1.52-.84,2.01-1.46.5-.63.74-1.36.74-2.2,0-.76-.21-1.38-.64-1.86s-.99-.87-1.68-1.17c-.7-.3-1.45-.56-2.26-.79l-2.83-.81c-1.79-.52-3.22-1.25-4.27-2.21s-1.57-2.21-1.57-3.76c0-1.29.35-2.41,1.04-3.37.7-.96,1.65-1.71,2.83-2.24,1.19-.54,2.52-.81,3.99-.81s2.8.27,3.95.8c1.15.52,2.07,1.24,2.74,2.16.68.91,1.04,1.95,1.08,3.11h-2.69s0,0,0,0ZM536.87,356.11c-1.66,0-3.09-.37-4.3-1.1-1.2-.74-2.12-1.77-2.77-3.1-.64-1.33-.96-2.88-.96-4.65s.32-3.32.96-4.67c.65-1.36,1.56-2.41,2.72-3.17,1.17-.76,2.53-1.15,4.09-1.15.9,0,1.78.15,2.66.45.88.3,1.67.79,2.39,1.46.72.67,1.29,1.55,1.72,2.65.43,1.1.64,2.45.64,4.07v1.12h-13.3v-2.29h10.6c0-.97-.19-1.84-.58-2.61-.38-.76-.93-1.36-1.64-1.81-.7-.44-1.54-.66-2.49-.66-1.06,0-1.97.26-2.74.79-.76.51-1.35,1.19-1.76,2.02s-.62,1.72-.62,2.67v1.53c0,1.3.22,2.41.67,3.31.46.9,1.09,1.59,1.9,2.05.81.46,1.75.7,2.82.7.7,0,1.33-.1,1.89-.29.57-.2,1.06-.5,1.47-.9.41-.4.73-.91.96-1.51l2.56.72c-.27.87-.72,1.63-1.36,2.29-.64.65-1.42,1.16-2.36,1.53-.94.36-1.99.54-3.16.54h0ZM553.12,356.15c-1.09,0-2.08-.21-2.98-.62-.89-.42-1.6-1.02-2.12-1.81-.52-.79-.79-1.75-.79-2.88,0-.99.19-1.79.58-2.4.39-.62.91-1.11,1.56-1.46.65-.35,1.37-.61,2.16-.79.79-.18,1.59-.32,2.39-.43,1.05-.13,1.9-.24,2.55-.3.66-.07,1.14-.2,1.44-.37.3-.17.46-.47.46-.9v-.09c0-1.11-.3-1.97-.91-2.58-.6-.61-1.51-.92-2.73-.92s-2.26.28-2.98.83-1.22,1.15-1.52,1.77l-2.52-.9c.45-1.05,1.05-1.86,1.79-2.45.75-.59,1.58-1,2.47-1.23.9-.24,1.78-.36,2.65-.36.55,0,1.19.07,1.91.2.73.13,1.43.39,2.1.8.68.4,1.25,1.01,1.7,1.83.45.82.67,1.91.67,3.28v11.36h-2.65v-2.34h-.14c-.18.37-.48.77-.9,1.2s-.98.79-1.67,1.09-1.55.45-2.55.45h0s0,0,0,0ZM553.53,353.77c1.05,0,1.93-.21,2.65-.62.73-.41,1.27-.95,1.64-1.6.37-.65.56-1.34.56-2.05v-2.43c-.11.14-.36.26-.74.37-.37.1-.81.2-1.3.28-.49.08-.96.14-1.43.2-.46.05-.83.1-1.11.13-.69.09-1.33.24-1.93.44-.59.19-1.07.49-1.44.89-.36.39-.54.92-.54,1.6,0,.92.34,1.62,1.02,2.09.69.46,1.56.7,2.62.7ZM573.37,338.5v2.24h-8.94v-2.24h8.94ZM567.03,334.37h2.65v16.44c0,.75.11,1.31.33,1.68.22.37.51.61.85.74.35.12.72.18,1.11.18.29,0,.53-.02.72-.05.19-.04.34-.07.45-.09l.54,2.38c-.18.07-.43.13-.75.2-.32.07-.73.11-1.22.11-.75,0-1.48-.16-2.2-.48-.71-.32-1.3-.81-1.77-1.47-.46-.66-.7-1.49-.7-2.49v-17.16h0s0,0,0,0ZM584.85,338.5v2.24h-8.94v-2.24h8.94ZM578.52,334.37h2.65v16.44c0,.75.11,1.31.33,1.68.22.37.51.61.85.74.35.12.72.18,1.11.18.29,0,.53-.02.72-.05.19-.04.34-.07.45-.09l.54,2.38c-.18.07-.43.13-.75.2-.32.07-.73.11-1.22.11-.75,0-1.48-.16-2.2-.48-.71-.32-1.3-.81-1.77-1.47-.46-.66-.7-1.49-.7-2.49v-17.16h0s0,0,0,0ZM591.86,332.75v23h-2.65v-23h2.65ZM603.94,356.11c-1.66,0-3.09-.37-4.3-1.1-1.2-.74-2.12-1.77-2.77-3.1-.64-1.33-.96-2.88-.96-4.65s.32-3.32.96-4.67c.65-1.36,1.56-2.41,2.72-3.17,1.17-.76,2.53-1.15,4.09-1.15.9,0,1.78.15,2.66.45.88.3,1.67.79,2.39,1.46.72.67,1.29,1.55,1.72,2.65.43,1.1.64,2.45.64,4.07v1.12h-13.3v-2.29h10.6c0-.97-.19-1.84-.58-2.61-.38-.76-.93-1.36-1.64-1.81-.7-.44-1.54-.66-2.49-.66-1.06,0-1.97.26-2.74.79-.76.51-1.35,1.19-1.76,2.02s-.62,1.72-.62,2.67v1.53c0,1.3.22,2.41.67,3.31.46.9,1.09,1.59,1.9,2.05.81.46,1.75.7,2.82.7.7,0,1.33-.1,1.89-.29.57-.2,1.06-.5,1.47-.9.41-.4.73-.91.96-1.51l2.56.72c-.27.87-.72,1.63-1.36,2.29-.64.65-1.42,1.16-2.36,1.53-.94.36-1.99.54-3.16.54h0ZM630.48,349.19c-.91,0-1.73-.22-2.48-.66-.75-.45-1.35-1.05-1.79-1.79-.44-.75-.66-1.58-.66-2.48s.22-1.74.66-2.48c.45-.75,1.05-1.35,1.79-1.79.75-.45,1.58-.67,2.48-.67s1.74.22,2.48.67c.75.44,1.35,1.04,1.79,1.79.45.74.67,1.57.67,2.48s-.22,1.73-.67,2.48c-.44.75-1.04,1.35-1.79,1.79-.74.44-1.57.66-2.48.66ZM663.63,338.5c-.13-1.14-.68-2.02-1.64-2.65-.96-.63-2.13-.95-3.52-.95-1.02,0-1.91.16-2.67.5-.75.33-1.35.78-1.77,1.36-.42.58-.63,1.23-.63,1.97,0,.61.14,1.14.44,1.58.3.43.68.8,1.15,1.09.46.29.95.52,1.46.71.51.18.98.33,1.4.44l2.34.63c.6.16,1.27.37,2,.65.74.28,1.45.66,2.12,1.14.68.47,1.24,1.08,1.68,1.82s.66,1.65.66,2.73c0,1.24-.33,2.37-.98,3.37-.64,1-1.59,1.8-2.83,2.39-1.23.59-2.74.89-4.5.89-1.65,0-3.07-.27-4.28-.8-1.2-.53-2.14-1.27-2.83-2.22-.68-.95-1.07-2.05-1.15-3.31h2.87c.08.87.37,1.59.88,2.16.52.56,1.17.98,1.95,1.26.79.27,1.65.4,2.56.4,1.06,0,2.02-.17,2.86-.52.85-.35,1.52-.84,2.01-1.46.5-.63.74-1.36.74-2.2,0-.76-.21-1.38-.64-1.86s-.99-.87-1.68-1.17c-.7-.3-1.45-.56-2.26-.79l-2.83-.81c-1.79-.52-3.22-1.25-4.27-2.21s-1.57-2.21-1.57-3.76c0-1.29.35-2.41,1.04-3.37.7-.96,1.65-1.71,2.83-2.24,1.19-.54,2.52-.81,3.99-.81s2.8.27,3.95.8c1.15.52,2.07,1.24,2.74,2.16.68.91,1.04,1.95,1.08,3.11h-2.69s0,0,0,0ZM670.86,362.22v-23.72h2.56v2.74h.32c.19-.3.46-.68.81-1.15.35-.47.85-.89,1.51-1.26.66-.37,1.55-.56,2.67-.56,1.45,0,2.73.36,3.84,1.09,1.11.73,1.97,1.76,2.6,3.09.62,1.33.93,2.9.93,4.72s-.31,3.41-.93,4.75c-.62,1.33-1.48,2.37-2.58,3.1-1.1.73-2.37,1.09-3.81,1.09-1.11,0-2-.18-2.66-.55-.67-.37-1.18-.8-1.54-1.27-.36-.48-.64-.88-.83-1.19h-.22v9.12h-2.65,0ZM673.46,347.12c0,1.3.19,2.45.57,3.44.38.99.94,1.76,1.67,2.32.73.55,1.63.83,2.69.83s2.03-.29,2.77-.88c.75-.59,1.31-1.38,1.68-2.38.38-1,.57-2.12.57-3.35s-.19-2.31-.56-3.28c-.37-.98-.93-1.76-1.67-2.32-.74-.58-1.67-.87-2.8-.87s-1.99.27-2.72.82c-.74.54-1.29,1.3-1.66,2.27-.37.97-.56,2.09-.56,3.38h0ZM690.13,355.75v-17.25h2.56v2.61h.18c.31-.85.88-1.55,1.71-2.08.82-.53,1.75-.8,2.79-.8.19,0,.44,0,.73.01.29,0,.51.02.66.03v2.69c-.09-.02-.3-.06-.62-.1-.31-.05-.65-.08-1-.08-.84,0-1.59.18-2.24.53-.65.34-1.17.82-1.55,1.44-.37.61-.56,1.3-.56,2.08v10.91h-2.65ZM701.9,355.75v-17.25h2.65v17.25h-2.65ZM703.24,335.63c-.51,0-.96-.18-1.34-.53-.37-.35-.55-.77-.55-1.27s.18-.92.55-1.27c.37-.35.82-.53,1.34-.53s.96.18,1.33.53c.37.35.56.77.56,1.27s-.19.92-.56,1.27c-.37.35-.81.53-1.33.53ZM712.05,345.37v10.38h-2.65v-17.25h2.56v2.69h.22c.4-.88,1.02-1.58,1.84-2.11.82-.54,1.89-.81,3.19-.81,1.17,0,2.19.24,3.06.72.88.47,1.56,1.19,2.04,2.16.49.96.73,2.17.73,3.64v10.96h-2.65v-10.78c0-1.36-.35-2.41-1.06-3.17-.7-.76-1.67-1.15-2.9-1.15-.85,0-1.6.18-2.27.55-.66.37-1.18.9-1.56,1.6-.38.7-.57,1.56-.57,2.56h0ZM734.86,362.58c-1.28,0-2.38-.16-3.3-.5-.92-.32-1.69-.75-2.3-1.28-.61-.53-1.09-1.09-1.45-1.68l2.11-1.48c.24.31.54.67.91,1.08.37.41.87.77,1.51,1.07.64.3,1.49.46,2.53.46,1.39,0,2.54-.34,3.45-1.01s1.36-1.73,1.36-3.17v-3.5h-.22c-.19.31-.47.7-.83,1.17-.35.46-.86.87-1.53,1.22-.66.35-1.55.53-2.67.53-1.39,0-2.64-.33-3.75-.99-1.1-.66-1.97-1.62-2.62-2.87-.64-1.26-.96-2.79-.96-4.58s.31-3.3.93-4.61c.62-1.32,1.49-2.34,2.6-3.06,1.11-.72,2.39-1.09,3.84-1.09,1.12,0,2.01.19,2.67.56.67.37,1.17.79,1.53,1.26.36.46.64.85.83,1.15h.27v-2.74h2.56v17.74c0,1.48-.34,2.69-1.01,3.62-.67.94-1.57,1.62-2.69,2.05-1.12.44-2.37.66-3.75.66h-.01,0ZM734.77,353.1c1.06,0,1.96-.24,2.69-.73.73-.49,1.29-1.19,1.67-2.1s.57-2.01.57-3.28-.19-2.34-.56-3.29c-.37-.95-.93-1.7-1.66-2.24-.74-.54-1.64-.81-2.72-.81s-2.06.29-2.81.85c-.74.57-1.3,1.33-1.67,2.29-.37.96-.55,2.02-.55,3.19s.19,2.26.56,3.18c.38.91.95,1.63,1.68,2.16.75.52,1.68.77,2.79.77h0ZM754.85,338.5v2.24h-9.3v-2.24h9.3ZM748.33,355.75v-19.63c0-.99.23-1.81.7-2.47s1.07-1.15,1.81-1.48c.74-.33,1.52-.5,2.35-.5.65,0,1.18.05,1.6.16.41.11.72.2.92.29l-.76,2.29c-.14-.05-.32-.1-.56-.17-.23-.07-.54-.1-.92-.1-.88,0-1.51.22-1.9.66-.38.44-.57,1.09-.57,1.94v19h-2.66ZM758.56,355.75v-17.25h2.65v17.25h-2.65ZM759.91,335.63c-.52,0-.96-.18-1.34-.53-.37-.35-.55-.77-.55-1.27s.18-.92.55-1.27c.37-.35.82-.53,1.34-.53s.96.18,1.33.53c.37.35.56.77.56,1.27s-.19.92-.56,1.27c-.37.35-.81.53-1.33.53ZM773.3,356.11c-1.66,0-3.09-.37-4.3-1.1-1.2-.74-2.12-1.77-2.77-3.1-.64-1.33-.96-2.88-.96-4.65s.32-3.32.96-4.67c.65-1.36,1.56-2.41,2.72-3.17,1.17-.76,2.53-1.15,4.09-1.15.9,0,1.78.15,2.66.45.88.3,1.67.79,2.39,1.46.72.67,1.29,1.55,1.72,2.65.43,1.1.64,2.45.64,4.07v1.12h-13.3v-2.29h10.6c0-.97-.19-1.84-.58-2.61-.38-.76-.93-1.36-1.64-1.81-.7-.44-1.54-.66-2.49-.66-1.06,0-1.97.26-2.74.79-.76.51-1.35,1.19-1.76,2.02s-.62,1.72-.62,2.67v1.53c0,1.3.22,2.41.67,3.31.46.9,1.09,1.59,1.9,2.05.81.46,1.75.7,2.82.7.7,0,1.33-.1,1.89-.29.57-.2,1.06-.5,1.47-.9.41-.4.73-.91.96-1.51l2.56.72c-.27.87-.72,1.63-1.36,2.29-.64.65-1.42,1.16-2.36,1.53-.94.36-1.99.54-3.16.54h0ZM787.12,332.75v23h-2.65v-23h2.65ZM798.49,356.11c-1.44,0-2.71-.36-3.81-1.09-1.1-.73-1.96-1.77-2.58-3.1-.62-1.34-.93-2.92-.93-4.75s.31-3.38.93-4.72c.62-1.33,1.49-2.36,2.6-3.09,1.11-.72,2.39-1.09,3.84-1.09,1.12,0,2.01.19,2.66.56.66.37,1.16.79,1.51,1.26.35.46.62.85.82,1.15h.22v-8.49h2.65v23h-2.56v-2.65h-.31c-.19.31-.47.71-.83,1.19-.36.47-.87.9-1.54,1.27-.67.37-1.55.55-2.66.55h0ZM798.85,353.73c1.06,0,1.96-.28,2.69-.83.73-.56,1.29-1.34,1.67-2.32.38-.99.57-2.15.57-3.44s-.19-2.42-.56-3.38c-.37-.97-.93-1.73-1.66-2.27-.73-.54-1.64-.82-2.72-.82s-2.06.29-2.8.87c-.74.57-1.3,1.35-1.67,2.32-.37.97-.55,2.07-.55,3.28s.19,2.34.56,3.35c.38.99.94,1.79,1.68,2.38.75.58,1.68.88,2.79.88h0ZM826.97,349.19c-.91,0-1.73-.22-2.48-.66-.75-.45-1.35-1.05-1.79-1.79-.44-.75-.66-1.58-.66-2.48s.22-1.74.66-2.48c.45-.75,1.05-1.35,1.79-1.79.75-.45,1.58-.67,2.48-.67s1.74.22,2.48.67c.75.44,1.35,1.04,1.79,1.79.45.74.67,1.57.67,2.48s-.22,1.73-.67,2.48c-.44.75-1.04,1.35-1.79,1.79-.74.44-1.57.66-2.48.66ZM846.29,335.22v-2.47h17.25v2.47h-7.23v20.53h-2.79v-20.53h-7.23,0ZM871.98,356.11c-1.56,0-2.92-.37-4.1-1.11-1.17-.74-2.08-1.78-2.74-3.11-.65-1.33-.98-2.89-.98-4.67s.32-3.36.98-4.71c.66-1.34,1.57-2.38,2.74-3.12,1.17-.74,2.54-1.11,4.1-1.11s2.92.37,4.09,1.11c1.18.74,2.09,1.78,2.74,3.12.66,1.34.99,2.91.99,4.71s-.33,3.34-.99,4.67c-.65,1.33-1.57,2.37-2.74,3.11-1.17.74-2.53,1.11-4.09,1.11ZM871.98,353.73c1.18,0,2.16-.3,2.92-.91s1.33-1.4,1.7-2.39c.37-.99.55-2.06.55-3.21s-.18-2.23-.55-3.22c-.37-.99-.93-1.8-1.7-2.42-.76-.61-1.74-.92-2.92-.92s-2.16.31-2.92.92-1.33,1.42-1.7,2.42c-.37.99-.55,2.07-.55,3.22s.18,2.22.55,3.21c.37.99.93,1.78,1.7,2.39.76.61,1.74.91,2.92.91ZM883.85,355.75v-17.25h2.56v2.61h.18c.32-.85.88-1.55,1.71-2.08.82-.53,1.75-.8,2.79-.8.19,0,.44,0,.73.01.29,0,.51.02.66.03v2.69c-.09-.02-.3-.06-.62-.1-.31-.05-.65-.08-1-.08-.84,0-1.59.18-2.24.53-.65.34-1.17.82-1.55,1.44-.37.61-.56,1.3-.56,2.08v10.91h-2.65,0ZM902.09,356.11c-1.56,0-2.92-.37-4.1-1.11-1.17-.74-2.08-1.78-2.74-3.11-.65-1.33-.98-2.89-.98-4.67s.33-3.36.98-4.71c.66-1.34,1.57-2.38,2.74-3.12,1.17-.74,2.54-1.11,4.1-1.11s2.92.37,4.09,1.11c1.17.74,2.09,1.78,2.74,3.12.66,1.34.99,2.91.99,4.71s-.33,3.34-.99,4.67c-.65,1.33-1.57,2.37-2.74,3.11-1.17.74-2.53,1.11-4.09,1.11ZM902.09,353.73c1.18,0,2.16-.3,2.92-.91s1.33-1.4,1.7-2.39c.37-.99.55-2.06.55-3.21s-.18-2.23-.55-3.22c-.37-.99-.93-1.8-1.7-2.42s-1.74-.92-2.92-.92-2.16.31-2.92.92-1.33,1.42-1.7,2.42c-.37.99-.55,2.07-.55,3.22s.18,2.22.55,3.21c.37.99.93,1.78,1.7,2.39.76.61,1.74.91,2.92.91ZM916.6,345.37v10.38h-2.65v-17.25h2.56v2.69h.22c.4-.88,1.02-1.58,1.84-2.11.82-.54,1.89-.81,3.19-.81,1.17,0,2.19.24,3.06.72.88.47,1.56,1.19,2.04,2.16.49.96.73,2.17.73,3.64v10.96h-2.65v-10.78c0-1.36-.35-2.41-1.06-3.17-.71-.76-1.67-1.15-2.9-1.15-.85,0-1.6.18-2.27.55-.66.37-1.18.9-1.56,1.6-.38.7-.57,1.56-.57,2.56h0ZM939.95,338.5v2.24h-8.94v-2.24h8.94ZM933.62,334.37h2.65v16.44c0,.75.11,1.31.32,1.68.22.37.51.61.85.74.35.12.72.18,1.11.18.29,0,.53-.02.72-.05.19-.04.34-.07.45-.09l.54,2.38c-.18.07-.43.13-.75.2-.32.07-.73.11-1.22.11-.75,0-1.48-.16-2.2-.48-.71-.32-1.3-.81-1.77-1.47-.46-.66-.7-1.49-.7-2.49v-17.16h0s0,0,0,0ZM950.76,356.11c-1.56,0-2.92-.37-4.1-1.11-1.17-.74-2.08-1.78-2.74-3.11-.65-1.33-.98-2.89-.98-4.67s.33-3.36.98-4.71c.66-1.34,1.57-2.38,2.74-3.12,1.17-.74,2.54-1.11,4.1-1.11s2.92.37,4.09,1.11c1.17.74,2.09,1.78,2.74,3.12.66,1.34.99,2.91.99,4.71s-.33,3.34-.99,4.67c-.65,1.33-1.57,2.37-2.74,3.11-1.17.74-2.53,1.11-4.09,1.11ZM950.76,353.73c1.18,0,2.16-.3,2.92-.91s1.33-1.4,1.7-2.39c.37-.99.55-2.06.55-3.21s-.18-2.23-.55-3.22c-.37-.99-.93-1.8-1.7-2.42s-1.74-.92-2.92-.92-2.16.31-2.92.92-1.33,1.42-1.7,2.42c-.37.99-.55,2.07-.55,3.22s.18,2.22.55,3.21c.37.99.93,1.78,1.7,2.39.76.61,1.74.91,2.92.91ZM977.99,349.19c-.91,0-1.73-.22-2.48-.66-.75-.45-1.35-1.05-1.8-1.79-.44-.75-.66-1.58-.66-2.48s.22-1.74.66-2.48c.45-.75,1.05-1.35,1.8-1.79.75-.45,1.57-.67,2.48-.67s1.74.22,2.48.67c.75.44,1.35,1.04,1.79,1.79.45.74.67,1.57.67,2.48s-.22,1.73-.67,2.48c-.44.75-1.04,1.35-1.79,1.79-.74.44-1.57.66-2.48.66ZM998.56,355.75v-23h7.77c1.8,0,3.27.31,4.43.92,1.15.61,2,1.44,2.56,2.5.55,1.06.83,2.27.83,3.63s-.28,2.56-.83,3.6-1.4,1.87-2.55,2.47c-1.15.59-2.61.89-4.39.89h-6.28v-2.52h6.2c1.23,0,2.21-.18,2.96-.54.75-.36,1.3-.87,1.64-1.53.35-.67.51-1.46.51-2.38s-.17-1.73-.51-2.42c-.35-.69-.9-1.22-1.65-1.59-.76-.38-1.76-.57-3-.57h-4.89v20.53h-2.79ZM1009.38,345.42l5.66,10.33h-3.23l-5.58-10.33h3.14,0ZM1025.48,356.11c-1.67,0-3.1-.37-4.31-1.1-1.2-.74-2.11-1.77-2.77-3.1-.64-1.33-.97-2.88-.97-4.65s.33-3.32.97-4.67c.65-1.36,1.55-2.41,2.72-3.17,1.17-.76,2.53-1.15,4.08-1.15.9,0,1.79.15,2.67.45.87.3,1.67.79,2.39,1.46.71.67,1.28,1.55,1.72,2.65.42,1.1.63,2.45.63,4.07v1.12h-13.29v-2.29h10.6c0-.97-.2-1.84-.59-2.61-.38-.76-.92-1.36-1.63-1.81s-1.54-.66-2.5-.66c-1.06,0-1.97.26-2.74.79-.76.51-1.35,1.19-1.76,2.02-.42.83-.62,1.72-.62,2.67v1.53c0,1.3.23,2.41.67,3.31.46.9,1.1,1.59,1.9,2.05.81.46,1.75.7,2.83.7.69,0,1.32-.1,1.88-.29.57-.2,1.07-.5,1.47-.9.42-.4.73-.91.96-1.51l2.56.72c-.27.87-.72,1.63-1.35,2.29-.64.65-1.42,1.16-2.36,1.53-.94.36-1.99.54-3.15.54h0ZM1036.64,355.75v-17.25h2.56v2.69h.23c.35-.92.94-1.63,1.74-2.15.8-.51,1.77-.77,2.88-.77s2.08.26,2.85.77c.76.51,1.35,1.22,1.78,2.15h.19c.43-.89,1.1-1.6,1.99-2.12.88-.53,1.94-.8,3.17-.8,1.54,0,2.8.48,3.78,1.45.99.96,1.47,2.45,1.47,4.48v11.54h-2.65v-11.54c0-1.27-.35-2.18-1.05-2.73-.69-.54-1.51-.82-2.46-.82-1.2,0-2.15.37-2.82,1.1-.66.73-1,1.65-1,2.76v11.23h-2.7v-11.81c0-.98-.32-1.77-.95-2.37-.64-.61-1.46-.91-2.46-.91-.69,0-1.33.18-1.94.55-.58.37-1.07.88-1.43,1.53-.35.64-.54,1.39-.54,2.23v10.78h-2.65,0,0ZM1071.14,356.11c-1.56,0-2.93-.37-4.1-1.11-1.17-.74-2.08-1.78-2.74-3.11-.65-1.33-.98-2.89-.98-4.67s.33-3.36.98-4.71c.65-1.34,1.57-2.38,2.74-3.12,1.18-.74,2.54-1.11,4.1-1.11s2.92.37,4.08,1.11c1.18.74,2.1,1.78,2.75,3.12.65,1.34.99,2.91.99,4.71s-.34,3.34-.99,4.67c-.65,1.33-1.57,2.37-2.75,3.11-1.17.74-2.53,1.11-4.08,1.11ZM1071.14,353.73c1.18,0,2.15-.3,2.92-.91s1.33-1.4,1.7-2.39c.37-.99.54-2.06.54-3.21s-.18-2.23-.54-3.22c-.37-.99-.94-1.8-1.7-2.42-.76-.61-1.74-.92-2.92-.92s-2.16.31-2.93.92-1.32,1.42-1.69,2.42c-.38.99-.55,2.07-.55,3.22s.18,2.22.55,3.21c.37.99.93,1.78,1.69,2.39.76.61,1.74.91,2.93.91ZM1090.5,338.5v2.24h-8.94v-2.24h8.94ZM1084.17,334.37h2.65v16.44c0,.75.11,1.31.33,1.68.23.37.51.61.86.74.35.12.72.18,1.11.18.3,0,.53-.02.72-.05.19-.04.34-.07.45-.09l.54,2.38c-.18.07-.43.13-.75.2-.33.07-.73.11-1.23.11-.75,0-1.48-.16-2.2-.48-.71-.32-1.3-.81-1.77-1.47s-.7-1.49-.7-2.49v-17.16h0s0,0,0,0ZM1101.53,356.11c-1.66,0-3.09-.37-4.3-1.1-1.2-.74-2.13-1.77-2.77-3.1-.65-1.33-.97-2.88-.97-4.65s.32-3.32.97-4.67c.64-1.36,1.55-2.41,2.72-3.17,1.17-.76,2.53-1.15,4.08-1.15.9,0,1.79.15,2.67.45.87.3,1.67.79,2.39,1.46.71.67,1.28,1.55,1.71,2.65.43,1.1.64,2.45.64,4.07v1.12h-13.29v-2.29h10.59c0-.97-.19-1.84-.58-2.61-.38-.76-.93-1.36-1.64-1.81-.7-.44-1.53-.66-2.49-.66-1.06,0-1.97.26-2.74.79-.76.51-1.35,1.19-1.76,2.02-.42.83-.62,1.72-.62,2.67v1.53c0,1.3.23,2.41.67,3.31.45.9,1.09,1.59,1.9,2.05.81.46,1.75.7,2.82.7.7,0,1.33-.1,1.89-.29.57-.2,1.07-.5,1.47-.9.42-.4.73-.91.96-1.51l2.56.72c-.27.87-.72,1.63-1.36,2.29-.63.65-1.42,1.16-2.35,1.53-.94.36-1.99.54-3.16.54h0,0Z"/>
    <g>
      <path class="cls-6" d="M33.68,120.71h1.25v7.27h.94v7.27h2.5v7.58h2.82v7.27h2.19v8.22h4.07v2.59h-.94v2.21h-.62v2.15h2.82v31.27h4.38v115.2H12.66v-115.2h4.38v-31.27h2.82v-2.15h-.62v-2.21h-.94v-2.59h4.07v-8.22h2.19v-7.27h2.82v-7.58h2.5v-7.27h.94v-7.27h1.25v-15.29h1.64v15.29h0Z"/>
      <path class="cls-6" d="M106.09,218.99v-18.42h-1.21v18.42h-1.74l-.12.45-1.69,6.35h-5.54v12.08h2.7v36.85h-3.43v-4.67l1.87-3.26.08-.14v-4.39l-17.54-4.74v-3.27h-1.21v3.27l-18.89,5.1v4.11l.18.18,3.2,3.22v4.58h-2.16v-2.72h-3.24v2.72h-.82v-2.72h-3.24v2.72h-.81v-2.72h-3.24v2.72h-5.19v-.57l1.25-1.89.1-.15v-2.98h1.35v-14.8h-3.24v5.44h-.81v-1.43h-1.21v1.43h-.81v-6.12h-3.91v6.12h-.82v-1.43h-1.21v1.43h-.81v-5.44h-2.56v14.8h1.35v2.19h-2.16v-3.4h-3.24v3.4h-.81v-3.4l-3.24,3.4H2.96v41.23h164.88v-41.23h-2.7v-3.4h-3.91v3.4h-.81v-3.4h-3.91v3.4h-3.06v-11.28l2.63-1.52.3-.18v-14.21h-3.24v6.12h-2.84v-6.12h-4.58v6.12h-2.84v-6.12h-3.46v14.21l.3.18,2.62,1.52v4.49h-2.16v-3.4h-3.91v3.4h-.81v-3.4h-3.91v3.4h-.81v-3.4h-3.91v13.59h-1.49v-3.4h-3.24v3.4h-.81v-3.4h-3.24v3.4h-.81v-3.4h-3.24v3.4h-1.49v-36.85h2.7v-12.08h-5.55l-1.9-6.36-.13-.43h-1.55s0,0,0,0Z"/>
    </g>
    <g>
      <circle class="cls-3" cx="735.98" cy="248.62" r="4.88"/>
      <path class="cls-4" d="M737.69,196.84c6.53.21,12.74,1.66,18.43,4.12l.98.39-.02.03c11.86,5.43,21.26,15.28,26.1,27.45l.34.79h-.03c2.11,5.59,3.27,11.64,3.27,17.95v1.71h-.03c-.21,6.51-1.66,12.7-4.1,18.36l-.42,1.04-.04-.02c-5.18,11.33-14.41,20.42-25.83,25.43l.15.34-1.57.67-.15-.35c-5.31,2.12-11.06,3.36-17.07,3.56v.03h-1.71l-1.31-.02c-5.43-.14-10.64-1.13-15.51-2.84l-.02.04-1.4-.57c-12.16-4.68-22.06-13.91-27.62-25.6l-.03.02-.48-1.12c-2.6-5.83-4.14-12.24-4.36-18.98h-.03v-1.71c0-5.9,1.01-11.56,2.86-16.83l-.04-.02.6-1.5c7.35-18.98,25.78-32.43,47.35-32.43h1.71v.04h0ZM719.8,293.9c4.69,1.64,9.7,2.59,14.92,2.72l1.27.02v-10.99c-.16,0-.33,0-.49,0-4.06,0-7.97-.65-11.63-1.84l-4.06,10.09h0ZM749.7,282.87c-3.74,1.53-7.78,2.47-12.01,2.71v11.01c5.78-.2,11.3-1.39,16.4-3.42l-4.39-10.31h0ZM702.52,283.45c4.51,4.21,9.82,7.58,15.67,9.86l4.05-10.06c-4.51-1.7-8.61-4.24-12.1-7.43l-7.63,7.63h0ZM761.34,275.36c-2.95,2.79-6.34,5.11-10.07,6.83l4.4,10.34c5.1-2.24,9.75-5.32,13.77-9.07l-8.1-8.1h0ZM724.5,282.23c3.47,1.12,7.16,1.72,10.99,1.72.16,0,.33,0,.49,0v-10.99c-.16,0-.33,0-.49,0-2.39,0-4.69-.34-6.87-.96l-4.12,10.23h0ZM744.73,271.19c-2.21.89-4.57,1.46-7.05,1.67v11.01c3.99-.24,7.81-1.14,11.34-2.58l-4.3-10.11h0ZM691.69,268.7c2.42,5.06,5.68,9.64,9.6,13.57l7.62-7.62c-2.95-2.95-5.41-6.39-7.26-10.19l-9.97,4.24ZM769.7,263.65c-1.78,3.91-4.21,7.45-7.15,10.5l8.12,8.12c4.09-4.09,7.47-8.91,9.91-14.23l-10.88-4.38h0ZM711.36,274.62c3.33,3.03,7.24,5.44,11.53,7.05l4.11-10.2c-2.91-1.06-5.57-2.64-7.85-4.64l-7.78,7.78h0ZM752.36,266.37c-1.8,1.66-3.84,3.05-6.06,4.13l4.3,10.12c3.52-1.64,6.74-3.83,9.53-6.47l-7.77-7.77h0ZM703.23,263.79c1.75,3.59,4.09,6.85,6.89,9.65l7.77-7.77c-1.81-1.81-3.34-3.9-4.52-6.19l-10.13,4.31h0ZM757.91,258.9c-1.12,2.31-2.59,4.43-4.34,6.28l7.77,7.77c2.78-2.89,5.08-6.24,6.78-9.93l-10.2-4.11h0ZM729.27,270.41c1.98.55,4.07.85,6.23.85.16,0,.33,0,.49,0v-17.5l-6.72,16.66h0ZM737.69,271.15c2.23-.21,4.37-.73,6.37-1.53l-6.37-14.98v16.51h0ZM720.35,265.62c2.12,1.83,4.59,3.29,7.28,4.26l7.79-19.33-15.07,15.07h0ZM745.62,268.93c2.02-.98,3.88-2.26,5.53-3.76l-12.4-12.41,6.88,16.17h0ZM686.95,249.29c.21,6.33,1.63,12.35,4.02,17.85l9.97-4.24c-1.81-4.2-2.87-8.79-3.02-13.61h-10.97,0ZM773.06,249.29c-.14,4.51-1.08,8.82-2.68,12.79l10.89,4.39c2.22-5.32,3.53-11.11,3.74-17.18h-11.95ZM714.94,258.81c1.1,2.09,2.5,4,4.16,5.66l12.92-12.92-17.08,7.27ZM752.37,263.97c1.59-1.69,2.93-3.61,3.96-5.71l-16.19-6.53,12.23,12.23h0ZM699.63,249.29c.15,4.58,1.17,8.95,2.88,12.94l10.11-4.3c-1.16-2.67-1.85-5.58-2-8.64h-10.99,0ZM760.36,249.29c-.13,2.83-.75,5.54-1.75,8.05l10.19,4.1c1.52-3.77,2.41-7.87,2.56-12.15h-10.99ZM712.34,249.29c.15,2.82.8,5.51,1.87,7.97l18.73-7.97h-20.6,0ZM757.02,256.7c.93-2.31,1.5-4.8,1.63-7.41h-20.02l18.38,7.41h0ZM689.66,231.39c-1.77,5.07-2.73,10.51-2.73,16.19h10.99c.05-4.2.79-8.24,2.12-12l-10.38-4.18h0ZM701.62,236.22c-1.25,3.56-1.94,7.38-2,11.36h10.99c.05-2.53.47-4.96,1.22-7.25l-10.21-4.11ZM713.41,240.97c-.67,2.09-1.05,4.31-1.1,6.61h17.5l-16.4-6.61h0ZM741.32,247.58h17.35c-.05-2.4-.46-4.71-1.19-6.88l-16.16,6.88ZM759.06,240.03c.81,2.37,1.27,4.91,1.32,7.55h10.98c-.06-4.16-.82-8.16-2.18-11.86l-10.13,4.31ZM770.76,235.05c1.44,3.91,2.25,8.13,2.31,12.53h11.97c0-6.08-1.11-11.9-3.13-17.27l-11.15,4.74h0ZM718.39,232.41c-1.85,2.02-3.35,4.37-4.4,6.95l19.01,7.66-14.61-14.61h0ZM739.46,246.51l17.42-7.41c-.95-2.26-2.25-4.35-3.83-6.18l-13.59,13.59ZM735.5,224.88c-2.81,0-5.51.5-8.01,1.42l8.5,19.96v-21.38c-.16,0-.33,0-.49,0ZM725.9,226.95c-2.34,1.06-4.47,2.5-6.31,4.24l14.13,14.13-7.82-18.37h0ZM737.69,244.93l7.27-18.04c-2.25-1.01-4.7-1.67-7.27-1.91v19.95ZM740.14,243.42l11.75-11.75c-1.59-1.59-3.41-2.94-5.39-4.02l-6.35,15.77ZM709.41,223.43c-3.04,3.22-5.5,7.01-7.19,11.19l10.19,4.11c1.14-2.8,2.76-5.34,4.77-7.53l-7.77-7.77h0ZM754.26,231.72c1.73,1.98,3.16,4.25,4.19,6.72l10.11-4.3c-1.59-3.77-3.81-7.21-6.52-10.19l-7.78,7.78h0ZM700.11,214.12c-4.21,4.51-7.58,9.82-9.86,15.67l10.39,4.18c1.78-4.39,4.36-8.37,7.57-11.76l-8.1-8.1h0ZM763.25,222.73c2.87,3.14,5.21,6.76,6.88,10.74l11.15-4.74c-2.26-5.43-5.47-10.36-9.42-14.6l-8.61,8.61h0ZM747.14,226.06c2.2,1.17,4.21,2.66,5.96,4.4l7.77-7.77c-2.79-2.79-6.03-5.12-9.6-6.87l-4.12,10.23h0ZM720.93,215.27c-3.84,1.71-7.33,4.07-10.32,6.95l7.77,7.77c2-1.89,4.31-3.46,6.85-4.6l-4.3-10.11h0ZM737.69,223.27c2.79.24,5.45.95,7.91,2.04l4.11-10.19c-3.72-1.61-7.77-2.6-12.01-2.86v11.01ZM735.5,212.19c-4.58,0-8.96.86-12.98,2.42l4.3,10.12c2.7-1,5.63-1.56,8.68-1.56.16,0,.33,0,.49,0v-10.98c-.16,0-.33,0-.49,0ZM751.9,214.24c3.79,1.84,7.22,4.3,10.17,7.25l8.6-8.6c-4.09-4.09-8.91-7.46-14.23-9.91l-4.54,11.26h0ZM715.67,202.91c-5.39,2.45-10.25,5.85-14.38,9.98l8.12,8.12c3.14-3.03,6.81-5.52,10.86-7.31l-4.59-10.79h0ZM737.69,210.54c4.47.26,8.74,1.3,12.65,2.98l4.53-11.24c-5.32-2.22-11.11-3.53-17.18-3.74v11.99h0ZM735.98,198.52c-6.64,0-12.97,1.32-18.74,3.71l4.6,10.81c4.23-1.65,8.84-2.56,13.65-2.56.16,0,.33,0,.49,0v-11.97Z"/>
      <path class="cls-3" d="M731.97,297.37c1.14,0,2.06.92,2.06,2.06v1.74c0,1.14-.92,2.06-2.06,2.06h-.77c-1.14,0-2.06-.92-2.06-2.06v-1.74c0-1.14.92-2.06,2.06-2.06h.77ZM741.73,297.37c1.14,0,2.06.92,2.06,2.06v1.74c0,1.14-.92,2.06-2.06,2.06h-.77c-1.14,0-2.06-.92-2.06-2.06v-1.74c0-1.14.92-2.06,2.06-2.06h.77ZM722.21,295.42c1.14,0,2.06.92,2.06,2.06v1.74c0,1.14-.92,2.06-2.06,2.06h-.77c-1.14,0-2.06-.92-2.06-2.06v-1.74c0-1.14.92-2.06,2.06-2.06h.77ZM751.49,295.42c1.14,0,2.06.92,2.06,2.06v1.74c0,1.14-.92,2.06-2.06,2.06h-.77c-1.14,0-2.06-.92-2.06-2.06v-1.74c0-1.14.92-2.06,2.06-2.06h.77ZM713.42,291.51c1.14,0,2.06.92,2.06,2.06v1.74c0,1.14-.92,2.06-2.06,2.06h-.77c-1.14,0-2.06-.92-2.06-2.06v-1.74c0-1.14.92-2.06,2.06-2.06h.77ZM760.28,291.51c1.14,0,2.06.92,2.06,2.06v1.74c0,1.14-.92,2.06-2.06,2.06h-.76c-1.14,0-2.06-.92-2.06-2.06v-1.74c0-1.14.92-2.06,2.06-2.06h.76ZM704.63,285.66c1.14,0,2.06.92,2.06,2.06v1.74c0,1.14-.92,2.06-2.06,2.06h-.77c-1.14,0-2.06-.92-2.06-2.06v-1.74c0-1.14.92-2.06,2.06-2.06h.77ZM769.07,285.66c1.14,0,2.06.92,2.06,2.06v1.74c0,1.14-.92,2.06-2.06,2.06h-.77c-1.14,0-2.06-.92-2.06-2.06v-1.74c0-1.14.92-2.06,2.06-2.06h.77ZM697.8,278.82c1.14,0,2.06.92,2.06,2.06v1.74c0,1.14-.92,2.06-2.06,2.06h-.77c-1.14,0-2.06-.92-2.06-2.06v-1.74c0-1.14.92-2.06,2.06-2.06h.77ZM775.9,278.82c1.14,0,2.06.92,2.06,2.06v1.74c0,1.14-.92,2.06-2.06,2.06h-.76c-1.14,0-2.06-.92-2.06-2.06v-1.74c0-1.14.92-2.06,2.06-2.06h.76ZM691.94,270.03c1.14,0,2.06.92,2.06,2.06v1.74c0,1.14-.92,2.06-2.06,2.06h-.77c-1.14,0-2.06-.92-2.06-2.06v-1.74c0-1.14.92-2.06,2.06-2.06h.77ZM781.76,270.03c1.14,0,2.06.92,2.06,2.06v1.74c0,1.14-.92,2.06-2.06,2.06h-.77c-1.14,0-2.06-.92-2.06-2.06v-1.74c0-1.14.92-2.06,2.06-2.06h.77ZM688.04,260.27c1.14,0,2.06.92,2.06,2.06v1.74c0,1.14-.92,2.06-2.06,2.06h-.77c-1.14,0-2.06-.92-2.06-2.06v-1.74c0-1.14.92-2.06,2.06-2.06h.77ZM785.66,260.27c1.14,0,2.06.92,2.06,2.06v1.74c0,1.14-.92,2.06-2.06,2.06h-.76c-1.14,0-2.06-.92-2.06-2.06v-1.74c0-1.14.92-2.06,2.06-2.06h.76ZM687.06,250.51c1.14,0,2.06.92,2.06,2.06v1.74c0,1.14-.92,2.06-2.06,2.06h-.77c-1.14,0-2.06-.92-2.06-2.06v-1.74c0-1.14.92-2.06,2.06-2.06h.77ZM786.64,250.51c1.14,0,2.06.92,2.06,2.06v1.74c0,1.14-.92,2.06-2.06,2.06h-.77c-1.14,0-2.06-.92-2.06-2.06v-1.74c0-1.14.92-2.06,2.06-2.06h.77ZM687.06,240.75c1.14,0,2.06.92,2.06,2.06v1.74c0,1.14-.92,2.06-2.06,2.06h-.77c-1.14,0-2.06-.92-2.06-2.06v-1.74c0-1.14.92-2.06,2.06-2.06h.77ZM786.64,240.75c1.14,0,2.06.92,2.06,2.06v1.74c0,1.14-.92,2.06-2.06,2.06h-.77c-1.14,0-2.06-.92-2.06-2.06v-1.74c0-1.14.92-2.06,2.06-2.06h.77ZM689.01,231.96c1.14,0,2.06.92,2.06,2.06v1.74c0,1.14-.92,2.06-2.06,2.06h-.76c-1.14,0-2.06-.92-2.06-2.06v-1.74c0-1.14.92-2.06,2.06-2.06h.76ZM784.69,231.96c1.14,0,2.06.92,2.06,2.06v1.74c0,1.14-.92,2.06-2.06,2.06h-.76c-1.14,0-2.06-.92-2.06-2.06v-1.74c0-1.14.92-2.06,2.06-2.06h.76ZM692.91,222.19c1.14,0,2.06.92,2.06,2.06v1.74c0,1.14-.92,2.06-2.06,2.06h-.76c-1.14,0-2.06-.92-2.06-2.06v-1.74c0-1.14.92-2.06,2.06-2.06h.76ZM780.78,222.19c1.14,0,2.06.92,2.06,2.06v1.74c0,1.14-.92,2.06-2.06,2.06h-.76c-1.14,0-2.06-.92-2.06-2.06v-1.74c0-1.14.92-2.06,2.06-2.06h.76ZM698.78,214.39c1.14,0,2.06.92,2.06,2.06v1.74c0,1.14-.92,2.06-2.06,2.06h-.77c-1.14,0-2.06-.92-2.06-2.06v-1.74c0-1.14.92-2.06,2.06-2.06h.77ZM774.93,214.39c1.14,0,2.06.92,2.06,2.06v1.74c0,1.14-.92,2.06-2.06,2.06h-.77c-1.14,0-2.06-.92-2.06-2.06v-1.74c0-1.14.92-2.06,2.06-2.06h.77ZM705.61,207.55c1.14,0,2.06.92,2.06,2.06v1.74c0,1.14-.92,2.06-2.06,2.06h-.77c-1.14,0-2.06-.92-2.06-2.06v-1.74c0-1.14.92-2.06,2.06-2.06h.77ZM768.09,207.55c1.14,0,2.06.92,2.06,2.06v1.74c0,1.14-.92,2.06-2.06,2.06h-.77c-1.14,0-2.06-.92-2.06-2.06v-1.74c0-1.14.92-2.06,2.06-2.06h.77ZM712.44,202.67c1.14,0,2.06.92,2.06,2.06v1.74c0,1.14-.92,2.06-2.06,2.06h-.77c-1.14,0-2.06-.92-2.06-2.06v-1.74c0-1.14.92-2.06,2.06-2.06h.77ZM761.26,202.67c1.14,0,2.06.92,2.06,2.06v1.74c0,1.14-.92,2.06-2.06,2.06h-.77c-1.14,0-2.06-.92-2.06-2.06v-1.74c0-1.14.92-2.06,2.06-2.06h.77ZM722.21,198.76c1.14,0,2.06.92,2.06,2.06v1.74c0,1.14-.92,2.06-2.06,2.06h-.77c-1.14,0-2.06-.92-2.06-2.06v-1.74c0-1.14.92-2.06,2.06-2.06h.77ZM751.49,198.76c1.14,0,2.06.92,2.06,2.06v1.74c0,1.14-.92,2.06-2.06,2.06h-.77c-1.14,0-2.06-.92-2.06-2.06v-1.74c0-1.14.92-2.06,2.06-2.06h.77ZM731.97,196.81c1.14,0,2.06.92,2.06,2.06v1.74c0,1.14-.92,2.06-2.06,2.06h-.77c-1.14,0-2.06-.92-2.06-2.06v-1.74c0-1.14.92-2.06,2.06-2.06h.77ZM741.73,196.81c1.14,0,2.06.92,2.06,2.06v1.74c0,1.14-.92,2.06-2.06,2.06h-.77c-1.14,0-2.06-.92-2.06-2.06v-1.74c0-1.14.92-2.06,2.06-2.06h.77Z"/>
      <path class="cls-3" d="M715.22,306.37v-115.66c-.84,0-3.37.47-6.73-.41-3.37-.88-5.05-4.48-5.47-6.17h-2.1v-30.03l-2.1-1.65-15.98,3.29v6.07l-6.73,3.8v140.75h39.12s0,0,0,0Z"/>
      <path class="cls-3" d="M684.69,286.22h-8.98v6.22h-33.83v18.91h144.24l-28-19.25h-23.76v-5.88h-8.98l-20.08-9.09-20.6,9.09h0Z"/>
      <path class="cls-3" d="M640.37,143.73h1.06v1.99h3.72v1.33l1.46.8c-.27.09-.9.37-1.33.8-.42.42-.49,1.99-.58,2.25h1.51l10.22,3.98v2.39h.8c1.59,0,1.99.13,2.39.4s.4.4-.66.8c-.85.32-3.01.66-3.98.79l-.79,2.66,1.46.53c-.97.53-3.13,1.59-3.98,1.59h-2.39c-.93,5.13-2.59,16.73-3.44,22.04-1.06,6.64-1.2,12.88-1.2,19.51s.13,9.69.79,16.06c.53,5.1,4.4,37.92,6.04,53.09l3.25,1.46h-.8v1.46h.4v1.06l-2.79,1.19,3.05,22.04h2.25c.09.44.13,1.41-.4,1.73-.53.32-1.46.66-1.86.8v4.38h-12.48v-7.7h-5.04v7.7h-12.48v-4.38c-.4-.13-1.33-.48-1.86-.8-.53-.32-.49-1.28-.4-1.73h2.25l3.05-22.04-2.79-1.19v-1.06h.4v-1.46h-.8l3.25-1.46c1.64-15.18,5.51-48,6.04-53.09.66-6.37.46-9.43.46-16.06s.07-12.88-1-19.51c-.85-5.31-2.39-16.9-3.32-22.04h-2.39c-.85,0-3.01-1.06-3.98-1.59l1.46-.53-.8-2.66c-.97-.13-3.13-.48-3.98-.79-1.06-.4-1.06-.53-.66-.8s.8-.4,2.39-.4h.8v-2.39l10.22-3.98h1.67c-.09-.27-.31-1.83-.74-2.25s-1.06-.71-1.33-.8l1.46-.8v-1.33h3.72v-1.99h1.06l.4-11.95h.8l.4,11.95h0ZM627.03,300.41c.58.31,2.15.98,3.85,1.19,1.7.21,3.63.27,4.38.27v-21.9h-5.58l-2.66,20.44ZM643.36,301.87c.75,0,2.68-.06,4.38-.27,1.7-.21,3.27-.89,3.85-1.19l-2.66-20.44h-5.58v21.9ZM637.12,298.02h4.51v-8.36h-4.51v8.36ZM637.25,287.93h4.25v-7.97h-4.25v7.97ZM630.77,272.05h4.94l.4-21.64h-3.75l-1.59,21.64h0ZM642.45,272.05h5.57l-1.59-21.64h-3.98v21.64ZM638.05,271.03h2.52v-8.49h-2.52v8.49ZM638.05,259.44h2.52v-8.91h-2.52v8.91ZM636.81,214.23c-.23,3.5-.98,10.94-2.1,18.23-1.12,7.29-1.87,13.79-2.1,15.42h3.5l.7-33.65h0ZM642.42,247.89h3.5c-.23-1.64-.98-10.24-2.1-17.53-1.12-7.29-1.87-12.62-2.1-16.13l.7,33.65h0ZM638.05,247.71h2.52v-8.23h-2.39l-.13,8.23ZM638.18,237.1h2.39v-7.7h-2.39v7.7ZM639.37,218.5c-.49.4-1.19,1.51-1.19,2.79v6.01h2.39v-6.01c0-1.27-.71-2.39-1.19-2.79ZM637.51,192.5l-2.8-28.75h-2.81l5.61,28.75ZM641.72,192.5l5.61-28.75h-2.81l-2.81,28.75h0ZM636.84,161.96c.35,6.25,1.05,18.75,1.52,20.77.46,2.02.6,2.77,1.1,2.77s.81-.74,1.28-2.77c.47-2.03.98-14.52,1.33-20.77h-5.23,0Z"/>
    </g>
    <g>
      <path class="cls-5" d="M222.93,204.25h2.91v1.49h-2.91v-1.49Z"/>
      <path class="cls-5" d="M222.93,220.12h2.91v1.49h-2.91v-1.49Z"/>
      <path class="cls-5" d="M222.93,251.87h2.91v1.49h-2.91v-1.49Z"/>
      <path class="cls-5" d="M222.93,235.99h2.91v1.49h-2.91v-1.49Z"/>
      <path class="cls-5" d="M222.93,267.74h2.91v1.49h-2.91v-1.49Z"/>
      <path class="cls-5" d="M222.93,212.18h2.91v1.49h-2.91v-1.49Z"/>
      <path class="cls-5" d="M222.93,228.06h2.91v1.49h-2.91v-1.49Z"/>
      <path class="cls-5" d="M222.93,259.8h2.91v1.49h-2.91v-1.49Z"/>
      <path class="cls-5" d="M222.93,243.93h2.91v1.49h-2.91v-1.49Z"/>
      <path class="cls-5" d="M222.93,275.67h2.91v1.49h-2.91v-1.49Z"/>
      <path class="cls-5" d="M222.93,208.22h2.91v1.49h-2.91v-1.49Z"/>
      <path class="cls-5" d="M222.93,224.09h2.91v1.49h-2.91v-1.49Z"/>
      <path class="cls-5" d="M222.93,255.83h2.91v1.49h-2.91v-1.49Z"/>
      <path class="cls-5" d="M222.93,239.96h2.91v1.49h-2.91v-1.49Z"/>
      <path class="cls-5" d="M222.93,271.71h2.91v1.49h-2.91v-1.49Z"/>
      <path class="cls-5" d="M222.93,216.15h2.91v1.49h-2.91v-1.49Z"/>
      <path class="cls-5" d="M222.93,232.02h2.91v1.49h-2.91v-1.49Z"/>
      <path class="cls-5" d="M222.93,263.77h2.91v1.49h-2.91v-1.49Z"/>
      <path class="cls-5" d="M222.93,247.9h2.91v1.49h-2.91v-1.49Z"/>
      <path class="cls-5" d="M222.93,279.64h2.91v1.49h-2.91v-1.49Z"/>
      <path class="cls-5" d="M222.93,287.58h2.91v1.49h-2.91v-1.49Z"/>
      <path class="cls-5" d="M222.93,283.61h2.91v1.49h-2.91v-1.49Z"/>
      <path class="cls-5" d="M222.93,291.55h2.91v1.49h-2.91v-1.49Z"/>
      <g>
        <path class="cls-11" d="M224.88,202.76h34.97v93.25h-34.97v-93.25Z"/>
        <path class="cls-11" d="M240.94,281.43h38.37v6.11h53.63v5.43h15.61v-5.43h21.04v9.5h12.22v10.18h-183.61v-23.76h12.14v-9.9h24.5v11.26h6.11v-3.4h0Z"/>
        <path class="cls-11" d="M283.69,172.7v126.56h41.02v-91.89c0-25.31.77-34.12-2.84-40.17-2.89-4.84-8.94-8.07-11.86-9.35v-12.65h-7.48c-5.43.96-10.21,3.3-12.9,6.61-3.36,4.13-5.93,8.38-5.93,20.91h0Z"/>
        <rect class="cls-11" x="331.62" y="155.44" width="34.24" height="140.38"/>
      </g>
    </g>
    <g>
      <path class="cls-6" d="M1076.91,305.68l-27.19-.57s-6.03-34.62-6.83-58.95c-.8-24.33,5.13-39.55,5.13-58.19v-32.57c11.63-3.13,18.01-11.39,29.02-7.93,0,0-1.05,26.34,0,43.17,1.12,17.86,3.8,24.15,5.89,45.45.69,7.04-1.06,25.27-2.09,35.75l-3.17,26.62c-.55,4.07-.88,6.74-.76,7.22h.13c-.06.11-.1.11-.13,0h0Z"/>
      <path class="cls-6" d="M1047.39,287.91h-6.17v-16.46h-3.3v-3.29h-2.65v-3.61l-6.94-3.98-6.94,3.98v3.61h-2.65v3.29h-3.3v27.93h-24.22v-11.47h-14.12v-5.29h-8.82v8.82h-6.17v20.29h175.43v-18.08h-58.99v.07h-20.4v-5.8h-10.76Z"/>
      <path class="cls-6" d="M1006.3,184.89l4.27,119.79h-13.43l4.27-119.79c-1.83-.23-5.49-1.9-5.49-6.77s3.67-6.99,5.49-7.45v-3.38c-.61,0-1.83-.27-1.83-1.35s1.22-1.8,1.83-2.03l.61-23.01c-.41-.23-1.22-.95-1.22-2.03s1.22-1.81,1.83-2.03l.61-38.58h1.22l.61,38.58c.61.23,1.83.95,1.83,2.03s-.81,1.8-1.22,2.03l.61,23.01c.61.23,1.83.95,1.83,2.03s-1.22,1.35-1.83,1.35v3.38c1.83.45,5.49,2.57,5.49,7.45s-3.67,6.54-5.49,6.77h0Z"/>
      <path class="cls-6" d="M1085.39,271.15c-.88,10.9,0,32.69,0,32.69h39.8v-36.33c.44-4.84-.83-17.18-9.4-27.78-10.71-13.25-15.75-13.25-19.69-26.5-3.15-10.6-1.3-26.5,0-33.12-.73,7.12-1.22,23.46,2.62,31.84,4.8,10.45,5.47,10.9,12.44,15.57l.04.03c5.6,3.76,7.73,5.27,8.1,5.56-.67-3.15-1.11-6.33-1.11-9.83,0-13.89,4.8-17.74,5.9-37.39,1.1-19.66-1.75-33.33-1.75-33.33-11.64-3.03-18.18-11.1-35.21-6.41,0,0-2.63,30.35-1.75,41.67.88,11.32,5.25,25.64,5.91,35.47.65,9.83-5.04,36.97-5.91,47.87h0Z"/>
    </g>
    <g>
      <path class="cls-3" d="M482.51,151.95h1.92v4.57l18.68,19.82v43.19l6.71,7.11v83.33h-52.68v-83.33l6.71-7.11v-43.19l18.68-19.82v-4.57h0Z"/>
      <rect class="cls-3" x="518.39" y="153.98" width="38.5" height="156"/>
      <path class="cls-3" d="M506.75,287.21v22.9h82.18v-20.16h-5.43v3.1h-6.2v-7.27h-6.73v-12.88h-22.77v24.04h-14.62v-9.73h-26.43Z"/>
      <path class="cls-4" d="M428.14,232.37l-.52-.08-15.45,48.34v13.43c4.88-.21,9.61-.37,14.29-.49v17.42h5.6v-17.55c13.21-.26,26.34-.24,41.75-.08v-3.05c-1.27-.02-2.54-.04-3.78-.05v-8.84l6.52,11.37,1.45-.85-7.36-12.84h3.45v-1.69h-4.92c-2.6.05-4.96.13-7.17.24-2.71.14-5.21.33-7.69.62-2.66.31-5.3.71-8.12,1.25-2.57.49-4.77,1.11-7.75,1.84-2.18-.21-4.08-.34-5.82-.41v-46.14c0-1.56-1.26-2.82-2.8-2.82h-1.68v.4h0ZM419.73,290.49c-1.44.04-2.9.08-4.36.12l4.36-5.86v5.74ZM425.79,290.35c-1.45.03-2.91.06-4.38.1v-5.77l4.38,5.67ZM429.26,282.56c.46,0,.93,0,1.4.01v7.68c-.47,0-.93.02-1.4.03v-7.71h0ZM467.14,290.22c-1.44-.02-2.85-.03-4.25-.04v-8.21l4.25,8.26ZM437.66,290.17c-1.22.01-2.43.03-3.65.04l3.65-5.29v5.25ZM459.8,290.15c-1.53-.01-3.05-.02-4.55-.03v-7.87l4.55,7.9ZM443.56,290.12c-1.41,0-2.81.01-4.21.03v-5.47l4.21,5.45h0ZM451.88,290.12c-1.57,0-3.14,0-4.69,0v-7l4.69,7h0ZM445.51,289.9l-5.55-7.18c2.09-.52,3.76-.96,5.55-1.34v8.52h0ZM427.58,289.9l-5.39-6.99c1.9-.16,3.63-.27,5.39-.32v7.31h0ZM415.09,282c1.27.24,2.58.5,4,.78l-5.25,7.05v-8.06c.41.08.83.15,1.25.23ZM432.34,282.62c1.42.06,2.94.15,4.65.3l-4.65,6.74v-7.04h0ZM453.57,289.6l-5.8-8.65c1.99-.36,3.89-.65,5.8-.89v9.54ZM461.2,289.22l-5.42-9.41c1.75-.18,3.54-.31,5.42-.42v9.83ZM468.35,288.9l-4.95-9.61c1.56-.07,3.2-.12,4.95-.16v9.77ZM426.52,280.93c-1.9.08-3.79.23-5.9.42-1.89-.37-3.59-.71-5.21-1.02-.44-.08-.87-.16-1.3-.24l2.96-9.25,9.46,10.08h0ZM427.58,268.95v10.65l-9.93-10.59,2.96-9.27,6.97,9.21h0ZM427.58,256.18v9.98l-6.34-8.38,2.69-8.41,3.65,6.81ZM427.58,252.61l-2.94-5.48,2.94-9.2v14.68h0Z"/>
    </g>
    <g id="missouri_2" data-name="missouri 2">
      <g>
        <path class="cls-11" d="M893.09,308.34v-68.34h12.28v-4.27h14.86v4.27h11.52v68.34s-38.89,0-38.66,0Z"/>
        <path class="cls-11" d="M819.06,308.55v-44.81h8.15v-6.11h8.83v17.65h87.58v33.27s-104.27-.31-104.55,0Z"/>
        <path class="cls-11" d="M868.21,302.05h40.01s0-5.1,0-5.1l-.88-.88h-7.28v-2.48s-3.84-3.34-3.84-3.34h-8.44v-68s5.46-7.22,5.46-7.22h-18.28s0,72.8,0,72.8h-3.13v-83.95h3.13v8.02s18.29,0,18.29,0v-13.38s-24.88,0-24.88,0c0,0-.32,0-.32,0h-25.2v13.38h18.29v-8.02h3.13v83.95h-3.13v-72.8h-18.28l5.46,7.22v68h-8.44l-3.84,3.34v2.48h-7.28l-.88.88v5.1h40.01"/>
      </g>
    </g>
    <rect class="cls-10" x="2.96" y="307.54" width="1135.43" height="8.2"/>
    <g class="cls-7">
      <path class="cls-10" d="M614.61,113.07h-76.65V35.9h76.65v77.17ZM702.79,113.07h-76.66V35.9h76.66v77.17ZM790.92,113.07h-76.65V35.9h76.65v77.17ZM554.2,98.52h19.26c13.65,0,24.76-10.99,24.76-24.49.02-13.5-11.09-24.48-24.74-24.48h-19.27v48.97h0ZM636.29,98.52h13.36l3.33-7.94h22.4l3.33,7.94h13.36l-20.61-48.97h-14.58l-20.61,48.97ZM729.39,49.55v11.29h16.03v37.67h13.65v-37.67h16.02v-11.29h-45.7,0ZM571.17,61.25c8.01,0,13,4.89,13,12.79s-4.91,12.8-13.14,12.8h-3.29v-25.59h3.43ZM670.63,80.31h-12.9l6.46-15.32,6.44,15.32Z"/>
    </g>
    <path class="cls-10" d="M525.88,113.1h-184.13V35.57h184.13v77.53h0ZM346.7,108.16h174.24V40.52h-174.24v67.64h0ZM381.49,48.9c15.08,0,26.41,9.28,26.41,26.41s-11.33,26.41-26.41,26.41c-15.08,0-26.41-9.28-26.41-26.41s11.33-26.41,26.41-26.41h0ZM447.05,79.7h.28v-29.67h14.16v50.56h-17.63l-15.86-30.45h-.28v30.45h-14.16v-50.56h17.91l15.58,29.67h0ZM510.13,61.71h-24.22v7.5h22.8v11.19h-22.8v8.14h24.22v12.04h-39.86v-50.56h39.86v11.68ZM381.49,61.08c-5.17,0-10.55,2.9-10.55,14.23s5.38,14.23,10.55,14.23,10.55-2.9,10.55-14.23-5.38-14.23-10.55-14.23h0Z"/>
  </g>
  <rect class="cls-2" x="1.98" y="1.98" width="1134.44" height="375.51"/>
</svg>